<?xml version="1.0" encoding="UTF-8"?>
<svg version="1.1" xmlns="http://www.w3.org/2000/svg" width="160" height="162">
<path d="M0 0 C52.8 0 105.6 0 160 0 C160 53.46 160 106.92 160 162 C107.2 162 54.4 162 0 162 C0 108.54 0 55.08 0 0 Z " fill="#197EE1" transform="translate(0,0)"/>
<path d="M0 0 C52.8 0 105.6 0 160 0 C160 53.46 160 106.92 160 162 C107.2 162 54.4 162 0 162 C0 108.54 0 55.08 0 0 Z M48 8 C47.09636719 8.35578125 46.19273438 8.7115625 45.26171875 9.078125 C33.821254 13.61585555 18.93076295 24.98236735 13.9375 36.4375 C13.628125 37.283125 13.31875 38.12875 13 39 C11.8177673 40.94696365 10.58075761 42.8476422 9.31640625 44.7421875 C-0.42805348 61.45523713 -1.98154669 83.17270384 2.625 101.75 C7.44049014 118.03174463 18.45462602 136.47105265 33.04296875 145.984375 C34.90009443 146.97549624 36.779868 147.92636283 38.6875 148.81640625 C41 150 41 150 42.43359375 151.48828125 C48.41349383 157.25940676 58.99161265 158.80114614 67 159 C67 159.66 67 160.32 67 161 C92.65558995 161.45230227 115.27062299 156.86131863 134.51000977 138.63891602 C141.51713024 131.71646718 146.85344898 124.08041671 150.89453125 115.09375 C152 113 152 113 153.46484375 111.69873047 C159.63940102 104.86626077 158.42363022 91.90980096 158.3125 83.375 C158.31572266 82.12976563 158.31894531 80.88453125 158.32226562 79.6015625 C158.24631544 66.51051296 155.44238053 56.87038904 150 45 C149.70480469 44.26910156 149.40960938 43.53820313 149.10546875 42.78515625 C144.9699726 33.14924649 136.39469932 24.36912067 127.875 18.46484375 C126 17 126 17 124.5 14.94140625 C122.79217332 12.73101599 121.56116428 12.05459706 119 11 C118.2059375 10.67128906 117.411875 10.34257812 116.59375 10.00390625 C112.08794649 8.25994314 107.56599132 6.58007331 103 5 C102.38769531 4.74629639 101.77539062 4.49259277 101.14453125 4.23120117 C94.17723343 1.53716862 87.40864111 1.42402624 80 1.4375 C78.71577148 1.4384668 77.43154297 1.43943359 76.10839844 1.44042969 C65.63457859 1.63316698 57.3965407 3.54958682 48 8 Z " fill="#F8FBFE" transform="translate(0,0)"/>
<path d="M0 0 C5.84401322 3.16042461 11.45555676 7.47374509 15.05859375 13.11328125 C15.05859375 14.10328125 15.05859375 15.09328125 15.05859375 16.11328125 C13.86234375 16.52578125 12.66609375 16.93828125 11.43359375 17.36328125 C6.04734573 20.16812356 3.67000706 24.41180871 1.61785889 30.03869629 C-0.4382921 37.66595503 0.17040799 46.03093734 0.18359375 53.86328125 C0.16543639 55.83205775 0.14462426 57.80081164 0.12109375 59.76953125 C0.06965117 64.55107052 0.0541343 69.33148073 0.05859375 74.11328125 C-2.84085456 75.07976402 -4.70722105 75.24206857 -7.72265625 75.24609375 C-9.10904297 75.24802734 -9.10904297 75.24802734 -10.5234375 75.25 C-11.48636719 75.24613281 -12.44929688 75.24226563 -13.44140625 75.23828125 C-14.88580078 75.24408203 -14.88580078 75.24408203 -16.359375 75.25 C-17.28363281 75.24871094 -18.20789063 75.24742187 -19.16015625 75.24609375 C-20.42762695 75.24440186 -20.42762695 75.24440186 -21.72070312 75.24267578 C-23.94140625 75.11328125 -23.94140625 75.11328125 -26.94140625 74.11328125 C-26.94505188 73.56284149 -26.94869751 73.01240173 -26.95245361 72.44528198 C-26.99435302 66.70202833 -27.06375012 60.9595683 -27.14892578 55.21679688 C-27.17710369 53.07527616 -27.198334 50.93365207 -27.21240234 48.79199219 C-27.2338755 45.70844718 -27.28054942 42.62614107 -27.33203125 39.54296875 C-27.33325989 38.58961639 -27.33448853 37.63626404 -27.33575439 36.65402222 C-27.49008837 29.60613013 -29.2080367 25.81949812 -34.30078125 20.77734375 C-35.48414063 19.76800781 -35.48414063 19.76800781 -36.69140625 18.73828125 C-37.490625 18.04992187 -38.28984375 17.3615625 -39.11328125 16.65234375 C-39.7165625 16.14445312 -40.31984375 15.6365625 -40.94140625 15.11328125 C-39.76458725 9.19039002 -36.25307146 5.73855971 -31.40234375 2.328125 C-21.81355523 -3.13825983 -10.38606329 -4.14264528 0 0 Z " fill="#F5F7F7" transform="translate(92.94140625,78.88671875)"/>
<path d="M0 0 C5.46419793 2.17823222 9.2133376 5.41871955 12.41796875 10.3515625 C14.52797736 16.68158833 14.73326135 23.36827314 12.01953125 29.5234375 C5.88907523 39.18203351 -4.1320432 50.48906549 -15.58203125 53.3515625 C-15.91203125 35.8615625 -16.24203125 18.3715625 -16.58203125 0.3515625 C-11.80957378 -2.03466623 -5.04468971 -1.26689636 0 0 Z " fill="#F6F7F7" transform="translate(125.58203125,93.6484375)"/>
<path d="M0 0 C-0.33 17.16 -0.66 34.32 -1 52 C-10.52753645 50.09449271 -18.42466364 42.82884058 -24 35 C-25.4375 32 -25.4375 32 -26 30 C-26.66 30 -27.32 30 -28 30 C-30.3517698 23.58782764 -31.29811538 17.76761372 -30 11 C-26.89695047 5.73442702 -23.13228059 2.02665362 -17.625 -0.625 C-5.60526316 -1.86842105 -5.60526316 -1.86842105 0 0 Z " fill="#F4F6F7" transform="translate(50,94)"/>
<path d="M0 0 C5.34205582 1.8772084 10.44959546 5.89919092 13 11 C14.32311933 22.45701054 14.32311933 22.45701054 11.6484375 27.59765625 C7.7041445 32.24566673 3.59703752 35.51966722 -2.57421875 36.34375 C-8.23268746 36.6525341 -12.20759198 36.24398268 -16.5625 32.46484375 C-20.77426106 28.17296767 -22.27529168 25.13370029 -22.5625 19.125 C-22.28590646 11.42806947 -19.27940596 7.60503538 -14.375 2 C-9.55507978 -0.85624902 -5.47122408 -0.8601051 0 0 Z " fill="#F4F5F7" transform="translate(84,26)"/>
<path d="M0 0 C2.375 0.6875 2.375 0.6875 3.375 1.6875 C3.49772849 3.28263893 3.55281043 4.88304932 3.58032227 6.48266602 C3.60026749 7.50364883 3.62021271 8.52463165 3.64076233 9.57655334 C3.65747482 10.6869548 3.67418732 11.79735626 3.69140625 12.94140625 C3.71218735 14.07198959 3.73296844 15.20257294 3.75437927 16.36741638 C3.81999797 19.99487985 3.87881677 23.62241833 3.9375 27.25 C3.98067351 29.70248186 4.0242874 32.154956 4.06835938 34.60742188 C4.17569184 40.63403427 4.2774349 46.66072201 4.375 52.6875 C5.77105469 51.72070312 5.77105469 51.72070312 7.1953125 50.734375 C10.14153306 48.83779076 11.9571725 48.08959735 15.375 47.6875 C15.375 49.3375 15.375 50.9875 15.375 52.6875 C10.2229734 55.92708343 5.6176963 57.66711554 -0.3125 58.9375 C-1.05822266 59.11023438 -1.80394531 59.28296875 -2.57226562 59.4609375 C-6.02905312 60.23802086 -9.06564455 60.6875 -12.625 60.6875 C-12.46056396 60.04796387 -12.29612793 59.40842773 -12.12670898 58.74951172 C-11.46379108 54.70361567 -11.54109728 50.78653612 -11.59765625 46.6953125 C-11.61030355 44.92057487 -11.62266443 43.14583519 -11.63476562 41.37109375 C-11.6595492 38.5909168 -11.68751986 35.81084867 -11.72094727 33.03076172 C-11.75129705 30.33560525 -11.76896875 27.64058616 -11.78515625 24.9453125 C-11.79861588 24.1221756 -11.8120755 23.2990387 -11.82594299 22.45095825 C-11.86033816 14.46830731 -9.9719583 8.40552646 -5.625 1.6875 C-2.625 -0.3125 -2.625 -0.3125 0 0 Z " fill="#177CDF" transform="translate(105.625,96.3125)"/>
<path d="M0 0 C3 0 3 0 5.5 2.3125 C6.325 3.199375 7.15 4.08625 8 5 C8.8971875 5.7734375 8.8971875 5.7734375 9.8125 6.5625 C11 8 11 8 11 12 C11.66 12 12.32 12 13 12 C13.75782165 17.38677989 14.14878653 22.6340803 14.1328125 28.078125 C14.13424759 29.17891388 14.13424759 29.17891388 14.13571167 30.30194092 C14.13638666 31.83801358 14.13458038 33.37408921 14.13037109 34.91015625 C14.12498192 37.25787723 14.13035505 39.60540962 14.13671875 41.953125 C14.13605845 43.45312542 14.13477829 44.95312572 14.1328125 46.453125 C14.13483673 47.15109192 14.13686096 47.84905884 14.13894653 48.56817627 C14.12310957 51.85690067 14.01191011 54.85473818 13 58 C13.66 58 14.32 58 15 58 C14.67 58.99 14.34 59.98 14 61 C12.58297487 60.85769192 11.1663904 60.71099254 9.75 60.5625 C8.96109375 60.48128906 8.1721875 60.40007812 7.359375 60.31640625 C3.22987677 59.76261592 0.65490557 59.40806164 -2 56 C-2.32952881 53.55795288 -2.32952881 53.55795288 -2.26464844 50.62646484 C-2.24762878 49.52877777 -2.23060913 48.4310907 -2.21307373 47.30014038 C-2.17885315 46.11570343 -2.14463257 44.93126648 -2.109375 43.7109375 C-2.08530579 42.49677155 -2.06123657 41.28260559 -2.03643799 40.03164673 C-1.98275082 37.46429833 -1.92174282 34.89709421 -1.85400391 32.33007812 C-1.75024466 28.38430414 -1.66806245 24.4385425 -1.58984375 20.4921875 C-1.53511206 18.0025762 -1.47916413 15.51299127 -1.421875 13.0234375 C-1.39575134 11.83495209 -1.36962769 10.64646667 -1.3427124 9.42196655 C-1.31308411 8.3305838 -1.28345581 7.23920105 -1.25292969 6.11474609 C-1.22833679 5.14894623 -1.2037439 4.18314636 -1.17840576 3.18807983 C-1 1 -1 1 0 0 Z " fill="#187CE0" transform="translate(51,96)"/>
<path d="M0 0 C4.46403531 2.11454304 7.0831264 4.42080195 9 9 C9.64450072 13.97186272 8.92376063 17.29150795 6.25390625 21.421875 C3.6538119 24.69426789 0.99976607 26.61318394 -3.140625 27.4140625 C-8.28893331 27.7467763 -11.65335905 26.71066343 -15.625 23.41015625 C-18.70480026 20.2516111 -19.16898812 16.93597085 -19.5625 12.6875 C-19.40809839 7.84416536 -17.69263225 4.90951376 -14.33203125 1.48046875 C-9.81467617 -1.38733288 -5.10436638 -0.9570687 0 0 Z " fill="#EEF3F7" transform="translate(126,55)"/>
<path d="M0 0 C2.5949701 1.37724848 4.79712316 3.06430377 7 5 C7.55429687 5.43957031 8.10859375 5.87914062 8.6796875 6.33203125 C11.43249837 9.80969469 10.44349422 14.80528388 10 19 C8.23139226 23.61803133 5.40802625 25.83605984 1 28 C-2.45583981 28.59812612 -5.55145724 28.66894809 -9 28 C-11.9375 25.8125 -11.9375 25.8125 -14 23 C-14.598125 22.236875 -15.19625 21.47375 -15.8125 20.6875 C-17.42734085 17.03286018 -17.59198488 13.93589946 -17 10 C-15.32313464 6.3108962 -13.04315601 3.66276151 -10 1 C-6.3315241 -0.2228253 -3.86340281 -0.38634028 0 0 Z " fill="#EEF3F7" transform="translate(42,54)"/>
<path d="M0 0 C1.57043101 0.01330874 3.14079971 0.03717648 4.7109375 0.0703125 C5.51273438 0.07933594 6.31453125 0.08835937 7.140625 0.09765625 C9.12252273 0.12125027 11.10426731 0.15712185 13.0859375 0.1953125 C13.4159375 1.1853125 13.7459375 2.1753125 14.0859375 3.1953125 C15.81358914 4.90820255 15.81358914 4.90820255 17.8984375 6.5703125 C21.59958575 9.70766577 24.888509 12.8004555 27.0859375 17.1953125 C27.17543167 18.64568357 27.2035219 20.10009879 27.19946289 21.55322266 C27.19938736 22.45400543 27.19931183 23.35478821 27.19923401 24.28286743 C27.19407272 25.25686493 27.18891144 26.23086243 27.18359375 27.234375 C27.1821788 28.23036713 27.18076385 29.22635925 27.17930603 30.25253296 C27.17369686 33.44182303 27.1611428 36.63104356 27.1484375 39.8203125 C27.14342368 41.97916565 27.13886057 44.13801991 27.13476562 46.296875 C27.12457423 51.59640268 27.10500057 56.89577951 27.0859375 62.1953125 C35.9959375 62.1953125 44.9059375 62.1953125 54.0859375 62.1953125 C54.06273437 59.19824219 54.03953125 56.20117188 54.015625 53.11328125 C54.00003246 50.21411564 53.98788544 47.31495467 53.97607422 44.41577148 C53.96600977 42.39914869 53.95235703 40.38254051 53.93505859 38.3659668 C53.91082981 35.46920161 53.89945891 32.57262919 53.890625 29.67578125 C53.88030243 28.77256638 53.86997986 27.8693515 53.85934448 26.93876648 C53.85911789 25.677799 53.85911789 25.677799 53.85888672 24.39135742 C53.8544455 23.65189377 53.85000427 22.91243011 53.84542847 22.15055847 C54.0859375 20.1953125 54.0859375 20.1953125 56.0859375 17.1953125 C56.13658587 23.69145382 56.1716492 30.18754435 56.19580078 36.68383789 C56.20586756 38.89446923 56.21952198 41.10508722 56.23681641 43.31567383 C56.26103488 46.49043061 56.27241377 49.66501156 56.28125 52.83984375 C56.29157257 53.83055374 56.30189514 54.82126373 56.31253052 55.84199524 C56.31275711 57.22308723 56.31275711 57.22308723 56.31298828 58.63208008 C56.3174295 59.4426033 56.32187073 60.25312653 56.32644653 61.08821106 C56.0859375 63.1953125 56.0859375 63.1953125 54.0859375 66.1953125 C55.64054687 65.74478516 55.64054687 65.74478516 57.2265625 65.28515625 C58.59621034 64.90052912 59.96601013 64.51644281 61.3359375 64.1328125 C62.01785156 63.93365234 62.69976562 63.73449219 63.40234375 63.52929688 C69.66935911 61.79521981 69.66935911 61.79521981 73.0859375 63.1953125 C57.6446466 69.10132449 44.52279748 70.48509064 28.0859375 70.1953125 C28.0859375 69.5353125 28.0859375 68.8753125 28.0859375 68.1953125 C27.09013672 68.12183594 27.09013672 68.12183594 26.07421875 68.046875 C17.30386369 67.30427559 17.30386369 67.30427559 13.0859375 65.1953125 C16.20774151 64.22869887 18.60677545 64.20542341 21.8359375 64.6328125 C22.63515625 64.73464844 23.434375 64.83648437 24.2578125 64.94140625 C25.16273437 65.06708984 25.16273437 65.06708984 26.0859375 65.1953125 C26.5809375 64.2053125 26.5809375 64.2053125 27.0859375 63.1953125 C26.4259375 63.1953125 25.7659375 63.1953125 25.0859375 63.1953125 C25.0859375 48.0153125 25.0859375 32.8353125 25.0859375 17.1953125 C24.4259375 17.1953125 23.7659375 17.1953125 23.0859375 17.1953125 C22.9209375 16.4940625 22.7559375 15.7928125 22.5859375 15.0703125 C20.42486483 10.92825655 17.04506591 8.5955341 13.0859375 6.1953125 C12.4259375 6.1953125 11.7659375 6.1953125 11.0859375 6.1953125 C11.0859375 5.2053125 11.0859375 4.2153125 11.0859375 3.1953125 C5.4759375 2.8653125 -0.1340625 2.5353125 -5.9140625 2.1953125 C-3.9140625 0.1953125 -3.9140625 0.1953125 0 0 Z " fill="#4B90DD" transform="translate(38.9140625,90.8046875)"/>
<path d="M0 0 C0.33 0 0.66 0 1 0 C1.02531626 7.20824434 1.04285262 14.41647725 1.05493164 21.62475586 C1.0599662 24.07788522 1.06679424 26.53101157 1.07543945 28.98413086 C1.08754332 32.5063552 1.09323703 36.02853994 1.09765625 39.55078125 C1.10281754 40.65086014 1.10797882 41.75093903 1.11329651 42.88435364 C1.11337204 43.90518539 1.11344757 44.92601715 1.11352539 45.9777832 C1.115746 46.87713089 1.11796661 47.77647858 1.12025452 48.70307922 C1 51 1 51 0 54 C0.99 54.33 1.98 54.66 3 55 C3 55.66 3 56.32 3 57 C-5.51466993 55.5403423 -5.51466993 55.5403423 -8.37109375 52.578125 C-10.24965836 50.75812475 -12.11464712 49.82266142 -14.4375 48.625 C-19.18907206 45.84393282 -22.7341951 42.51101639 -26.4375 38.5 C-26.94531006 37.95424316 -27.45312012 37.40848633 -27.97631836 36.84619141 C-31.00259476 33.46653678 -33.14067269 30.18506214 -35 26 C-33.68 25.34 -32.36 24.68 -31 24 C-31 19.05 -31 14.1 -31 9 C-30.34 8.67 -29.68 8.34 -29 8 C-28.93941406 8.79664062 -28.87882812 9.59328125 -28.81640625 10.4140625 C-28.20332134 18.24332697 -28.20332134 18.24332697 -27 26 C-26.34 26 -25.68 26 -25 26 C-23.77934444 27.62754075 -22.62423979 29.30442523 -21.5 31 C-15.58090973 39.33614164 -9.37984801 43.98006514 0 48 C0 32.16 0 16.32 0 0 Z " fill="#3083DB" transform="translate(49,98)"/>
<path d="M0 0 C-0.33 17.16 -0.66 34.32 -1 52 C-6.625 50.875 -6.625 50.875 -9.8125 48.4375 C-10.41707031 47.98246094 -11.02164063 47.52742188 -11.64453125 47.05859375 C-12.31548828 46.53458984 -12.31548828 46.53458984 -13 46 C-11 45 -11 45 -7.9375 45.8125 C-5 47 -5 47 -4 49 C-3.97494385 47.68805664 -3.9498877 46.37611328 -3.92407227 45.02441406 C-3.82989329 40.15647633 -3.72969806 35.28867779 -3.62768555 30.42089844 C-3.58437642 28.31416073 -3.54269847 26.20738883 -3.50268555 24.10058594 C-3.44488573 21.07216081 -3.38121904 18.04390715 -3.31640625 15.015625 C-3.29969376 14.07382385 -3.28298126 13.13202271 -3.26576233 12.16168213 C-3.24581711 11.28107117 -3.22587189 10.40046021 -3.20532227 9.49316406 C-3.18977798 8.72039124 -3.1742337 7.94761841 -3.15821838 7.15142822 C-2.99981486 4.99748251 -2.58781794 3.07436562 -2 1 C-10.21525689 0.65816158 -10.21525689 0.65816158 -18 3 C-19.35432675 4.31200404 -20.68733482 5.64631404 -22 7 C-23.96879323 8.06011943 -25.96435867 9.07470849 -28 10 C-26.42800663 6.14147082 -24.17110109 3.67781869 -21 1 C-14.62031843 -1.67946626 -6.60714188 -2.20238063 0 0 Z " fill="#E4F2FE" transform="translate(50,94)"/>
<path d="M0 0 C0.80974903 2.84313331 1.12241859 5.35702965 1.11352539 8.30957031 C1.11341209 9.5704245 1.11341209 9.5704245 1.11329651 10.85675049 C1.10813522 11.75480408 1.10297394 12.65285767 1.09765625 13.578125 C1.0962413 14.5046991 1.09482635 15.43127319 1.09336853 16.38592529 C1.08777824 19.34064992 1.0752275 22.29529833 1.0625 25.25 C1.05748375 27.25520724 1.05292106 29.26041567 1.04882812 31.265625 C1.03781199 36.17711263 1.020554 41.0885434 1 46 C0.01 46.495 0.01 46.495 -1 47 C-1.99 46.34 -2.98 45.68 -4 45 C-3.01 45 -2.02 45 -1 45 C-1.00523682 43.74340576 -1.01047363 42.48681152 -1.01586914 41.19213867 C-1.03395417 36.53491934 -1.04544487 31.87770312 -1.05493164 27.22045898 C-1.05996382 25.20385211 -1.06679014 23.1872489 -1.07543945 21.1706543 C-1.08755373 18.27391661 -1.09323943 15.37722712 -1.09765625 12.48046875 C-1.10281754 11.57725388 -1.10797882 10.674039 -1.11329651 9.74345398 C-1.11337204 8.90280899 -1.11344757 8.062164 -1.11352539 7.19604492 C-1.115746 6.45658127 -1.11796661 5.71711761 -1.12025452 4.95524597 C-1 3 -1 3 0 0 Z M18 46 C2.5587091 51.90601199 -10.56314002 53.28977814 -27 53 C-27 52.34 -27 51.68 -27 51 C-28.98 51 -30.96 51 -33 51 C-33 50.67 -33 50.34 -33 50 C-31.89543457 50.00785522 -31.89543457 50.00785522 -30.76855469 50.01586914 C-27.42904515 50.03666867 -24.08954926 50.04966968 -20.75 50.0625 C-19.59113281 50.07087891 -18.43226562 50.07925781 -17.23828125 50.08789062 C-16.12324219 50.09111328 -15.00820312 50.09433594 -13.859375 50.09765625 C-12.83295898 50.10289307 -11.80654297 50.10812988 -10.74902344 50.11352539 C-8.29945371 50.01236643 -6.29903466 49.83881014 -4 49 C-3.67 48.34 -3.34 47.68 -3 47 C-2.34 47 -1.68 47 -1 47 C-1 47.66 -1 48.32 -1 49 C0.03640625 48.69964844 1.0728125 48.39929688 2.140625 48.08984375 C3.51027284 47.70521662 4.88007263 47.32113031 6.25 46.9375 C6.93191406 46.73833984 7.61382812 46.53917969 8.31640625 46.33398438 C14.58342161 44.59990731 14.58342161 44.59990731 18 46 Z " fill="#4E91DC" transform="translate(94,108)"/>
<path d="M0 0 C0.66 0 1.32 0 2 0 C2.77046965 2.75275764 3.13803396 5.23894518 3.18945312 8.09423828 C3.20617065 8.88831085 3.22288818 9.68238342 3.2401123 10.5005188 C3.25368774 11.34855072 3.26726318 12.19658264 3.28125 13.0703125 C3.29965942 13.94775116 3.31806885 14.82518982 3.33703613 15.72921753 C3.41562202 19.47902401 3.48359768 23.22900434 3.55224609 26.97900391 C3.60390484 29.71786553 3.66116323 32.45657016 3.71875 35.1953125 C3.73232544 36.04739288 3.74590088 36.89947327 3.7598877 37.77737427 C3.73487536 42.02407163 3.73487536 42.02407163 5 46 C6.65 46 8.3 46 10 46 C10 45.34 10 44.68 10 44 C11.32 44.33 12.64 44.66 14 45 C12.33333333 46.33333333 10.66666667 47.66666667 9 49 C8.13375 49.7425 7.2675 50.485 6.375 51.25 C4 53 4 53 1 53 C0.67 35.51 0.34 18.02 0 0 Z " fill="#B6D3F7" transform="translate(109,94)"/>
<path d="M0 0 C0.33 0 0.66 0 1 0 C1.02531626 7.20824434 1.04285262 14.41647725 1.05493164 21.62475586 C1.0599662 24.07788522 1.06679424 26.53101157 1.07543945 28.98413086 C1.08754332 32.5063552 1.09323703 36.02853994 1.09765625 39.55078125 C1.10281754 40.65086014 1.10797882 41.75093903 1.11329651 42.88435364 C1.11337204 43.90518539 1.11344757 44.92601715 1.11352539 45.9777832 C1.115746 46.87713089 1.11796661 47.77647858 1.12025452 48.70307922 C1 51 1 51 0 54 C0.99 54.33 1.98 54.66 3 55 C3 55.66 3 56.32 3 57 C-1.32160842 56.25915284 -5.11699711 55.23369155 -8.8125 52.8125 C-10.67008365 49.97724075 -10.18630774 47.2914367 -10 44 C-6.66666667 45.33333333 -3.33333333 46.66666667 0 48 C0 32.16 0 16.32 0 0 Z " fill="#3F89DD" transform="translate(49,98)"/>
<path d="M0 0 C0.66 0 1.32 0 2 0 C2.33 12.87 2.66 25.74 3 39 C5.29308963 40.14654482 6.79909656 40.19729117 9.3515625 40.31640625 C10.62773438 40.37924805 10.62773438 40.37924805 11.9296875 40.44335938 C12.81914063 40.48267578 13.70859375 40.52199219 14.625 40.5625 C15.97078125 40.62727539 15.97078125 40.62727539 17.34375 40.69335938 C19.56234283 40.79956861 21.7810488 40.90161194 24 41 C24 41.33 24 41.66 24 42 C20.5625177 42.02901394 17.12506688 42.04680335 13.6875 42.0625 C12.71103516 42.07087891 11.73457031 42.07925781 10.72851562 42.08789062 C9.79072266 42.09111328 8.85292969 42.09433594 7.88671875 42.09765625 C7.02264404 42.10289307 6.15856934 42.10812988 5.26831055 42.11352539 C3 42 3 42 0 41 C0 27.47 0 13.94 0 0 Z " fill="#CAE4FA" transform="translate(66,112)"/>
<path d="M0 0 C0.6796875 1.6328125 0.6796875 1.6328125 1 4 C-0.1796875 6.8046875 -0.1796875 6.8046875 -1.875 9.875 C-5.12523357 15.78588988 -6.16291786 20.60232083 -6 27.3125 C-5.96264148 28.87455333 -5.95294038 30.43820884 -6 32 C-6.495 32.495 -6.495 32.495 -7 33 C-7.15686249 34.55948542 -7.25076639 36.12542668 -7.31640625 37.69140625 C-7.35830078 38.63564453 -7.40019531 39.57988281 -7.44335938 40.55273438 C-7.48267578 41.54595703 -7.52199219 42.53917969 -7.5625 43.5625 C-7.60568359 44.55958984 -7.64886719 45.55667969 -7.69335938 46.58398438 C-7.79980298 49.0558415 -7.90181928 51.5278031 -8 54 C-11.01383227 49.47925159 -10.38309073 45.07410329 -10.375 39.75 C-10.37338867 38.668396 -10.37177734 37.58679199 -10.37011719 36.47241211 C-10.17283508 23.50691612 -7.27921365 10.91882048 0 0 Z " fill="#438ADA" transform="translate(11,42)"/>
<path d="M0 0 C0.99 0.495 0.99 0.495 2 1 C2 2.65 2 4.3 2 6 C2.66 6 3.32 6 4 6 C4 17.88 4 29.76 4 42 C2.515 42.495 2.515 42.495 1 43 C0.67 43.66 0.34 44.32 0 45 C0.16226074 44.14567383 0.32452148 43.29134766 0.49169922 42.41113281 C0.99647846 39.02363255 1.12936533 35.8444188 1.1328125 32.421875 C1.13410156 31.17792969 1.13539063 29.93398437 1.13671875 28.65234375 C1.13285156 27.36457031 1.12898437 26.07679687 1.125 24.75 C1.12886719 23.47769531 1.13273438 22.20539063 1.13671875 20.89453125 C1.12946607 13.86668332 0.89567756 6.97363528 0 0 Z " fill="#EBF7FE" transform="translate(156,59)"/>
<path d="M0 0 C1.57043101 0.01330874 3.14079971 0.03717648 4.7109375 0.0703125 C5.51273438 0.07933594 6.31453125 0.08835937 7.140625 0.09765625 C9.12252273 0.12125027 11.10426731 0.15712185 13.0859375 0.1953125 C13.4159375 1.1853125 13.7459375 2.1753125 14.0859375 3.1953125 C15.81358914 4.90820255 15.81358914 4.90820255 17.8984375 6.5703125 C25.92947859 13.50555624 25.92947859 13.50555624 26.3203125 17.7265625 C26.3343812 20.23079188 26.26052555 22.69773352 26.0859375 25.1953125 C25.7559375 25.1953125 25.4259375 25.1953125 25.0859375 25.1953125 C25.0859375 22.5553125 25.0859375 19.9153125 25.0859375 17.1953125 C24.4259375 17.1953125 23.7659375 17.1953125 23.0859375 17.1953125 C22.9209375 16.4940625 22.7559375 15.7928125 22.5859375 15.0703125 C20.42486483 10.92825655 17.04506591 8.5955341 13.0859375 6.1953125 C12.4259375 6.1953125 11.7659375 6.1953125 11.0859375 6.1953125 C11.0859375 5.2053125 11.0859375 4.2153125 11.0859375 3.1953125 C5.4759375 2.8653125 -0.1340625 2.5353125 -5.9140625 2.1953125 C-3.9140625 0.1953125 -3.9140625 0.1953125 0 0 Z " fill="#4287D4" transform="translate(38.9140625,90.8046875)"/>
<path d="M0 0 C-0.99 0.495 -0.99 0.495 -2 1 C-2.33 1.99 -2.66 2.98 -3 4 C-6.36920154 5.38591269 -9.96907657 5.13317616 -13.5625 5.125 C-14.69816406 5.12757813 -15.83382812 5.13015625 -17.00390625 5.1328125 C-20 5 -20 5 -23 4 C-23 3.01 -23 2.02 -23 1 C-20.29178874 0.83111377 -17.58345903 0.66482399 -14.875 0.5 C-14.11445312 0.45230469 -13.35390625 0.40460938 -12.5703125 0.35546875 C-8.3724967 0.10215228 -4.20798902 -0.05377622 0 0 Z " fill="#1C78D8" transform="translate(93,154)"/>
<path d="M0 0 C1.32 0.66 2.64 1.32 4 2 C4 2.66 4 3.32 4 4 C4.66 4 5.32 4 6 4 C5.52656383 15.77060261 4.08899782 22.61186775 -3 32 C-3.99 31.67 -4.98 31.34 -6 31 C-5.4225 30.28457031 -4.845 29.56914062 -4.25 28.83203125 C0.77164185 22.09291814 2.87833486 17.44503202 2.4765625 9.0078125 C1.97478278 5.84084216 1.10367614 3.0059472 0 0 Z " fill="#3D86D7" transform="translate(136,101)"/>
<path d="M0 0 C0.33 0 0.66 0 1 0 C1 15.18 1 30.36 1 46 C-4.625 44.875 -4.625 44.875 -7.8125 42.4375 C-8.41707031 41.98246094 -9.02164063 41.52742188 -9.64453125 41.05859375 C-10.31548828 40.53458984 -10.31548828 40.53458984 -11 40 C-9 39 -9 39 -6.0625 39.75 C-3 41 -3 41 0 44 C0 29.48 0 14.96 0 0 Z " fill="#ADCCF5" transform="translate(48,100)"/>
<path d="M0 0 C1.41376413 2.82752825 0.46680882 4.11063728 -0.4375 7.125 C-2.10241407 13.90629383 -2.27586281 20.40682071 -2.25 27.375 C-2.24669678 28.40898926 -2.24339355 29.44297852 -2.23999023 30.50830078 C-2.17571423 35.76531173 -1.90475041 40.81957428 -1 46 C-1.99 46 -2.98 46 -4 46 C-4.09943082 40.73475555 -4.17173199 35.47006657 -4.21972656 30.20410156 C-4.23974959 28.41559316 -4.26697654 26.62714946 -4.30175781 24.83886719 C-4.35068955 22.25699838 -4.37306165 19.6760005 -4.390625 17.09375 C-4.41127014 16.30383667 -4.43191528 15.51392334 -4.45318604 14.70007324 C-4.45552645 8.81127551 -2.93690216 5.10147018 0 0 Z " fill="#D9EDFC" transform="translate(4,54)"/>
<path d="M0 0 C0 3.13751221 -0.35179805 4.39757586 -2 7 C-2.99 7.33 -3.98 7.66 -5 8 C-5 8.99 -5 9.98 -5 11 C-4.01 11.33 -3.02 11.66 -2 12 C-3.98 12.99 -5.96 13.98 -8 15 C-8 13.68 -8 12.36 -8 11 C-11.48249231 12.25756667 -14.06465849 13.7731892 -17 16 C-17.66 16 -18.32 16 -19 16 C-19 15.34 -19 14.68 -19 14 C-17.36291866 12.95226794 -15.688699 11.9623271 -14 11 C-12.11044825 9.68737021 -10.23569115 8.35322993 -8.375 7 C-7.43398437 6.319375 -6.49296875 5.63875 -5.5234375 4.9375 C-3.5015267 3.38507313 -1.73174726 1.85959437 0 0 Z " fill="#3A87D9" transform="translate(129,133)"/>
<path d="M0 0 C0 0.66 0 1.32 0 2 C1.98 2 3.96 2 6 2 C6.495 3.485 6.495 3.485 7 5 C5.824375 4.67 4.64875 4.34 3.4375 4 C-7.132223 1.69933474 -17.34514855 1.91132535 -27 7 C-27 6.01 -27 5.02 -27 4 C-18.19262496 -0.84730223 -9.73537941 -0.40658197 0 0 Z " fill="#4489D8" transform="translate(88,75)"/>
<path d="M0 0 C1.65 0 3.3 0 5 0 C5 0.99 5 1.98 5 3 C5.66 3 6.32 3 7 3 C9.25929298 7.51858597 9.23967948 11.04662417 9 16 C7.86848239 19.39455284 6.5712768 20.57997478 4 23 C3.2575 23.8971875 3.2575 23.8971875 2.5 24.8125 C2.005 25.204375 1.51 25.59625 1 26 C-1.1875 25.6875 -1.1875 25.6875 -3 25 C-2.2575 24.649375 -1.515 24.29875 -0.75 23.9375 C2.66834047 21.52912376 4.52507334 18.85384064 6 15 C6.60949024 9.94993802 6.05063903 7.06751871 3 3 C1.41754725 1.24850835 1.41754725 1.24850835 0 0 Z " fill="#3D86D9" transform="translate(128,56)"/>
<path d="M0 0 C12.21 0 24.42 0 37 0 C30.86573259 4.08951161 22.64987245 3.13004967 15.5 3.0625 C14.5821875 3.05798828 13.664375 3.05347656 12.71875 3.04882812 C10.47909609 3.03716326 8.23958455 3.02079614 6 3 C6 2.34 6 1.68 6 1 C4.02 1 2.04 1 0 1 C0 0.67 0 0.34 0 0 Z " fill="#69A1E1" transform="translate(61,158)"/>
<path d="M0 0 C14.05588484 -0.42167655 14.05588484 -0.42167655 20 2 C21.5 5.125 21.5 5.125 22 8 C21.45730469 7.72285156 20.91460937 7.44570312 20.35546875 7.16015625 C19.64003906 6.79792969 18.92460937 6.43570313 18.1875 6.0625 C17.47980469 5.70285156 16.77210938 5.34320313 16.04296875 4.97265625 C12.43745373 3.25607262 9.25626797 2.76228089 5.3125 2.4375 C4.31863281 2.35371094 3.32476562 2.26992187 2.30078125 2.18359375 C1.16189453 2.09271484 1.16189453 2.09271484 0 2 C0 1.34 0 0.68 0 0 Z " fill="#3881D0" transform="translate(112,91)"/>
<path d="M0 0 C4.67535094 0.02435079 7.81043596 0.65406657 11.8125 3.25 C7.49834897 4.68805034 3.2017848 4.25661242 -1.29492188 4.12304688 C-5.10724021 4.06298255 -7.95725535 4.09931492 -11.1875 6.25 C-5.01877572 0.08127572 -5.01877572 0.08127572 0 0 Z " fill="#C1DDF7" transform="translate(78.1875,25.75)"/>
<path d="M0 0 C-1.56164448 4.2164401 -4.41485865 6.41869823 -8 9 C-9.32 9 -10.64 9 -12 9 C-12 6 -12 6 -10.64453125 4.39453125 C-4.5892824 -0.83441498 -4.5892824 -0.83441498 0 0 Z " fill="#2881DC" transform="translate(136,135)"/>
<path d="M0 0 C1.27166016 -0.00257812 2.54332031 -0.00515625 3.85351562 -0.0078125 C4.51601318 -0.00362305 5.17851074 0.00056641 5.86108398 0.00488281 C7.86895409 0.01553079 9.87690179 0.00395807 11.88476562 -0.0078125 C13.16029297 -0.00523438 14.43582031 -0.00265625 15.75 0 C16.91442627 0.00225586 18.07885254 0.00451172 19.27856445 0.00683594 C22.67142825 0.27325831 25.40566301 1.05483451 28.57421875 2.265625 C28.57421875 2.595625 28.57421875 2.925625 28.57421875 3.265625 C21.94921875 3.390625 21.94921875 3.390625 18.57421875 2.265625 C16.4362735 2.1822446 14.29579866 2.15828753 12.15625 2.16796875 C10.90263672 2.17119141 9.64902344 2.17441406 8.35742188 2.17773438 C6.39192383 2.19030273 6.39192383 2.19030273 4.38671875 2.203125 C3.05143394 2.20814183 1.71614734 2.21270441 0.38085938 2.21679688 C-2.88806598 2.22859805 -6.15690116 2.24506203 -9.42578125 2.265625 C-5.85171091 -0.11708856 -4.24232633 0.00824267 0 0 Z " fill="#6AA4E4" transform="translate(71.42578125,1.734375)"/>
<path d="M0 0 C0.5775 0.226875 1.155 0.45375 1.75 0.6875 C-0.22493032 3.12711981 -1.62269613 3.83243738 -4.625 5 C-8.78178559 6.93505536 -10.35991012 9.20457117 -13.25 12.6875 C-16.5625 14.0625 -16.5625 14.0625 -19.25 14.6875 C-15.46495647 9.71963037 -11.32431465 6.28895195 -6.25 2.6875 C-5.55519531 2.12804687 -4.86039063 1.56859375 -4.14453125 0.9921875 C-2.25 -0.3125 -2.25 -0.3125 0 0 Z " fill="#649FE0" transform="translate(42.25,11.3125)"/>
<path d="M0 0 C0.66 0 1.32 0 2 0 C2 0.99 2 1.98 2 3 C3.175625 3.4640625 3.175625 3.4640625 4.375 3.9375 C7 5 7 5 9 6 C9 6.66 9 7.32 9 8 C9.66 8 10.32 8 11 8 C11 8.99 11 9.98 11 11 C9.35 10.67 7.7 10.34 6 10 C6 9.01 6 8.02 6 7 C3.03 6.505 3.03 6.505 0 6 C-0.38218767 4.34385343 -0.71395102 2.67542976 -1 1 C-0.67 0.67 -0.34 0.34 0 0 Z " fill="#177CDE" transform="translate(27,134)"/>
<path d="M0 0 C2.97 0.495 2.97 0.495 6 1 C6.103125 1.639375 6.20625 2.27875 6.3125 2.9375 C6.539375 3.618125 6.76625 4.29875 7 5 C7.99 5.33 8.98 5.66 10 6 C10 9.63 10 13.26 10 17 C9.34 17.33 8.68 17.66 8 18 C8 14.37 8 10.74 8 7 C7.01 6.67 6.02 6.34 5 6 C3.15500602 4.12382302 1.6316401 2.07262391 0 0 Z " fill="#448BDA" transform="translate(44,55)"/>
<path d="M0 0 C3.39156182 3.39156182 3.21258181 6.77876348 3.3125 11.375 C3.34988281 12.49648437 3.38726562 13.61796875 3.42578125 14.7734375 C2.91858133 18.6169892 1.63318938 20.2265816 -1 23 C-0.83628906 22.01902344 -0.67257813 21.03804687 -0.50390625 20.02734375 C0.09159852 15.85881034 0.11249575 11.76598864 0.0625 7.5625 C0.05798828 6.83095703 0.05347656 6.09941406 0.04882812 5.34570312 C0.03718148 3.56376581 0.01925191 1.78187137 0 0 Z " fill="#C9E2F8" transform="translate(136,102)"/>
<path d="M0 0 C0.33 1.32 0.66 2.64 1 4 C-2.43459827 7.92525516 -4.29534196 9.810387 -9.58203125 10.3984375 C-13.07166296 10.37722393 -16.52046597 10.2606031 -20 10 C-20 9.67 -20 9.34 -20 9 C-18.83984375 8.90525391 -18.83984375 8.90525391 -17.65625 8.80859375 C-9.75648336 7.87978455 -5.35848784 5.89433662 0 0 Z " fill="#4B8EDC" transform="translate(95,53)"/>
<path d="M0 0 C1.32 0 2.64 0 4 0 C4 1.65 4 3.3 4 5 C-1.17578125 8.22265625 -1.17578125 8.22265625 -3 9 C-3.99 8.67 -4.98 8.34 -6 8 C-5.38125 7.4225 -4.7625 6.845 -4.125 6.25 C-2.18652947 4.19750179 -1.09985751 2.56633418 0 0 Z " fill="#267EDD" transform="translate(117,144)"/>
<path d="M0 0 C3.96 0 7.92 0 12 0 C12 0.66 12 1.32 12 2 C13.32 2.33 14.64 2.66 16 3 C16.33 4.32 16.66 5.64 17 7 C15.865625 6.360625 14.73125 5.72125 13.5625 5.0625 C9.09816188 2.80237891 4.95443682 2.22937207 0 2 C0 1.34 0 0.68 0 0 Z " fill="#3282D9" transform="translate(75,24)"/>
<path d="M0 0 C0.99 0.495 0.99 0.495 2 1 C2 2.65 2 4.3 2 6 C2.66 6 3.32 6 4 6 C3.67 13.92 3.34 21.84 3 30 C2.67 30 2.34 30 2 30 C1.96241577 29.16976318 1.96241577 29.16976318 1.92407227 28.32275391 C1.2941189 14.1368692 1.2941189 14.1368692 0 0 Z " fill="#B8D6F5" transform="translate(156,59)"/>
<path d="M0 0 C0 2.93593133 -0.22499427 5.76556416 -0.5 8.6875 C-0.5928125 9.68136719 -0.685625 10.67523438 -0.78125 11.69921875 C-0.8534375 12.45847656 -0.925625 13.21773437 -1 14 C-0.34 14.33 0.32 14.66 1 15 C1.72159424 16.64363134 2.39351421 18.31050386 3 20 C0.38874578 19.04254012 -0.79164659 18.34378312 -2.25 15.9375 C-3.52113812 10.95887569 -4.16088486 5.98317829 -1.5 1.4375 C-0.7575 0.7259375 -0.7575 0.7259375 0 0 Z " fill="#B3D5F3" transform="translate(110,59)"/>
<path d="M0 0 C5.60151537 5.84505951 4.12458602 15.46946744 4 23 C3.67 23 3.34 23 3 23 C2.49490361 19.91747911 1.99682001 16.83386475 1.5 13.75 C1.35691406 12.87730469 1.21382812 12.00460938 1.06640625 11.10546875 C0.93105469 10.26113281 0.79570312 9.41679688 0.65625 8.546875 C0.53056641 7.77182617 0.40488281 6.99677734 0.27539062 6.19824219 C0 4 0 4 0 0 Z " fill="#448BD8" transform="translate(154,57)"/>
<path d="M0 0 C-0.33 1.32 -0.66 2.64 -1 4 C-1.99 4 -2.98 4 -4 4 C-4.0825 4.556875 -4.165 5.11375 -4.25 5.6875 C-5.22610013 8.69714206 -6.95188814 10.62154752 -9 13 C-9 9.24665834 -8.94838335 8.3691612 -7.1875 5.375 C-6.85105469 4.78460938 -6.51460938 4.19421875 -6.16796875 3.5859375 C-4.47460439 1.28658657 -2.91567496 0 0 0 Z " fill="#3180D5" transform="translate(105,96)"/>
<path d="M0 0 C0.33 0 0.66 0 1 0 C1.06058594 1.21816406 1.12117187 2.43632813 1.18359375 3.69140625 C1.26806403 5.31511277 1.35270872 6.93881022 1.4375 8.5625 C1.47681641 9.36236328 1.51613281 10.16222656 1.55664062 10.98632812 C1.80748156 15.71371506 2.25321814 20.32476901 3 25 C2.01 25 1.02 25 0 25 C0 16.75 0 8.5 0 0 Z " fill="#CBE4FA" transform="translate(0,75)"/>
<path d="M0 0 C0.33 0.66 0.66 1.32 1 2 C2.65 2 4.3 2 6 2 C6 1.34 6 0.68 6 0 C7.32 0.33 8.64 0.66 10 1 C6.39042389 4.2910841 3.87362847 5.54663921 -1 6 C-0.67 4.02 -0.34 2.04 0 0 Z " fill="#E4F0FB" transform="translate(113,138)"/>
<path d="M0 0 C2 1 2 1 2.81640625 3.21484375 C3.06261719 4.11332031 3.30882812 5.01179688 3.5625 5.9375 C4.549513 9.55797321 4.549513 9.55797321 6 13 C5.67 13.66 5.34 14.32 5 15 C5.66 15 6.32 15 7 15 C6.67 16.32 6.34 17.64 6 19 C2.35920537 12.56479472 0.35865323 7.41216681 0 0 Z " fill="#3E87D8" transform="translate(4,100)"/>
<path d="M0 0 C0.66 0.33 1.32 0.66 2 1 C-1.22302975 5.83454463 -4.82620318 7.75216109 -10 10 C-8.25399339 6.22637281 -6.10159421 3.79899966 -3 1 C-2.01 0.67 -1.02 0.34 0 0 Z " fill="#C2DCF7" transform="translate(32,94)"/>
<path d="M0 0 C4.11313564 2.05656782 5.28608049 8.75307288 6.6875 12.9375 C7.12802005 14.29068724 7.56661254 15.64451156 8 17 C4.7457985 14.16569547 3.4793247 12.31392226 3 8 C2.34 8 1.68 8 1 8 C0.67 5.36 0.34 2.72 0 0 Z " fill="#408BD9" transform="translate(146,39)"/>
<path d="M0 0 C0.66 0 1.32 0 2 0 C1.39305845 3.15330554 0.3583335 5.18888867 -1.5625 7.75 C-2.24505859 8.67039063 -2.24505859 8.67039063 -2.94140625 9.609375 C-3.46541016 10.29773438 -3.46541016 10.29773438 -4 11 C-4.99 10.67 -5.98 10.34 -7 10 C-5.88321917 8.3278148 -4.75633648 6.66237197 -3.625 5 C-2.99851563 4.071875 -2.37203125 3.14375 -1.7265625 2.1875 C-1.15679687 1.465625 -0.58703125 0.74375 0 0 Z " fill="#4B8CDB" transform="translate(137,122)"/>
<path d="M0 0 C-0.25817019 3.48529763 -1.24021172 4.21465728 -3.9375 6.625 C-4.948125 7.40875 -5.95875 8.1925 -7 9 C-7.66 9.66 -8.32 10.32 -9 11 C-8.40300869 7.66864109 -7.27987719 5.78724333 -5.0625 3.25 C-4.53785156 2.63640625 -4.01320313 2.0228125 -3.47265625 1.390625 C-2 0 -2 0 0 0 Z " fill="#C0D8F6" transform="translate(61,83)"/>
<path d="M0 0 C-1.77444972 2.24606427 -2.58352485 2.95081002 -5.48046875 3.29296875 C-6.37378906 3.25816406 -7.26710938 3.22335938 -8.1875 3.1875 C-9.08855469 3.16042969 -9.98960938 3.13335937 -10.91796875 3.10546875 C-11.94857422 3.05326172 -11.94857422 3.05326172 -13 3 C-13.33 2.34 -13.66 1.68 -14 1 C-4.58997722 -0.14806378 -4.58997722 -0.14806378 0 0 Z " fill="#BFDAF8" transform="translate(46,79)"/>
<path d="M0 0 C1.32 0.99 2.64 1.98 4 3 C3.2884375 3.99 3.2884375 3.99 2.5625 5 C0.58682146 8.7933028 0.35972537 11.75524068 0 16 C-0.33 16 -0.66 16 -1 16 C-1.02692484 13.70839681 -1.04636124 11.41670454 -1.0625 9.125 C-1.07410156 7.84882812 -1.08570312 6.57265625 -1.09765625 5.2578125 C-1 2 -1 2 0 0 Z " fill="#3A87DB" transform="translate(25,56)"/>
<path d="M0 0 C6.4 0.36923077 6.4 0.36923077 9.4375 3.5625 C9.953125 4.366875 10.46875 5.17125 11 6 C5.64951939 5.62671065 3.49087093 4.0042343 0 0 Z " fill="#C6DFF7" transform="translate(37,139)"/>
<path d="M0 0 C0.99 0.33 1.98 0.66 3 1 C0.69 3.97 -1.62 6.94 -4 10 C-5 7 -5 7 -3.6875 4.3125 C-3.130625 3.549375 -2.57375 2.78625 -2 2 C-1.34 2 -0.68 2 0 2 C0 1.34 0 0.68 0 0 Z " fill="#3684D6" transform="translate(143,124)"/>
<path d="M0 0 C2.97 0 5.94 0 9 0 C9.66 1.98 10.32 3.96 11 6 C9.72791378 5.37755401 8.45738118 4.75193233 7.1875 4.125 C6.47980469 3.77695313 5.77210938 3.42890625 5.04296875 3.0703125 C3 2 3 2 0 0 Z " fill="#4B8DDA" transform="translate(123,93)"/>
<path d="M0 0 C1.299375 -0.02126953 1.299375 -0.02126953 2.625 -0.04296875 C5 0.1875 5 0.1875 8 2.1875 C7.27554688 2.15269531 6.55109375 2.11789063 5.8046875 2.08203125 C0.06001832 1.92118051 -4.01322966 1.95283816 -9 5.1875 C-8.6875 3.25 -8.6875 3.25 -8 1.1875 C-5.07345473 0.21198491 -3.05345004 0.02271912 0 0 Z " fill="#317ED4" transform="translate(38,52.8125)"/>
<path d="M0 0 C0.33 0 0.66 0 1 0 C1.13277344 0.77085938 1.26554687 1.54171875 1.40234375 2.3359375 C1.57894531 3.33882812 1.75554688 4.34171875 1.9375 5.375 C2.11152344 6.37273438 2.28554687 7.37046875 2.46484375 8.3984375 C2.87712062 10.96909656 2.87712062 10.96909656 4 13 C3.34 13.66 2.68 14.32 2 15 C-0.35119399 11.47320901 -0.21443452 9.97120515 -0.125 5.8125 C-0.10695312 4.72582031 -0.08890625 3.63914063 -0.0703125 2.51953125 C-0.04710937 1.68808594 -0.02390625 0.85664062 0 0 Z " fill="#CEE4FA" transform="translate(62,39)"/>
<path d="M0 0 C1.6266848 0.28211877 3.25132896 0.57602375 4.875 0.875 C5.77992187 1.03742187 6.68484375 1.19984375 7.6171875 1.3671875 C10 2 10 2 12 4 C7.45194365 4.17835515 4.1205746 3.99785435 0 2 C0 1.34 0 0.68 0 0 Z " fill="#478DDC" transform="translate(100,5)"/>
<path d="M0 0 C0.33 0 0.66 0 1 0 C1.33 3.96 1.66 7.92 2 12 C1.01 12.33 0.02 12.66 -1 13 C-1.33 13.66 -1.66 14.32 -2 15 C-1.855625 14.195625 -1.71125 13.39125 -1.5625 12.5625 C-0.90311661 8.38640519 -0.43908647 4.20401941 0 0 Z " fill="#D0E8FB" transform="translate(158,89)"/>
<path d="M0 0 C0 3.60352128 -1.08590249 5.01400788 -3 8 C-3.33 8.66 -3.66 9.32 -4 10 C-4.99 10 -5.98 10 -7 10 C-5.6062718 5.56541027 -3.39417765 3.12621626 0 0 Z " fill="#6EA5E2" transform="translate(22,26)"/>
<path d="M0 0 C4.75 1.875 4.75 1.875 7 3 C7 3.66 7 4.32 7 5 C7.66 5.33 8.32 5.66 9 6 C7.35 5.67 5.7 5.34 4 5 C4 4.34 4 3.68 4 3 C2.68 3.33 1.36 3.66 0 4 C0 2.68 0 1.36 0 0 Z " fill="#307BD3" transform="translate(39,142)"/>
<path d="M0 0 C2.97 0.495 2.97 0.495 6 1 C6.33 2.98 6.66 4.96 7 7 C5.83040013 6.02433888 4.66438823 5.044375 3.5 4.0625 C2.8503125 3.51722656 2.200625 2.97195312 1.53125 2.41015625 C1.0259375 1.94480469 0.520625 1.47945312 0 1 C0 0.67 0 0.34 0 0 Z " fill="#5C97DB" transform="translate(44,55)"/>
<path d="M0 0 C2.5 2.3125 2.5 2.3125 5 5 C5 5.99 5 6.98 5 8 C3.68 8.33 2.36 8.66 1 9 C1.020625 8.071875 1.04125 7.14375 1.0625 6.1875 C1.15769604 2.97713989 1.15769604 2.97713989 0 0 Z " fill="#ADD3F4" transform="translate(103,87)"/>
<path d="M0 0 C1.98 0 3.96 0 6 0 C4.1875 2 4.1875 2 2 4 C1.01 4 0.02 4 -1 4 C-0.67 2.68 -0.34 1.36 0 0 Z " fill="#E4EFFC" transform="translate(62,81)"/>
<path d="M0 0 C0.66 0.99 1.32 1.98 2 3 C1.01 3.495 1.01 3.495 0 4 C-1.13350534 6.01669827 -1.13350534 6.01669827 -2 8 C-3.32 7.67 -4.64 7.34 -6 7 C-5.071875 6.6596875 -5.071875 6.6596875 -4.125 6.3125 C-1.38589791 4.62070165 -0.94975528 3.00755839 0 0 Z " fill="#4E92DA" transform="translate(51,73)"/>
<path d="M0 0 C-0.625 1.875 -0.625 1.875 -2 4 C-5.125 5.25 -5.125 5.25 -8 6 C-3.375 0 -3.375 0 0 0 Z " fill="#5496DB" transform="translate(31,20)"/>
<path d="M0 0 C3.36591866 1.44253657 5.51047079 3.33264727 8 6 C4.62537285 5.45276317 2.91765 4.9451 0 3 C0 2.01 0 1.02 0 0 Z " fill="#3481D7" transform="translate(29,134)"/>
<path d="M0 0 C2.31 0.33 4.62 0.66 7 1 C7 2.65 7 4.3 7 6 C5.83054208 5.19152271 4.66449539 4.37810888 3.5 3.5625 C2.8503125 3.11003906 2.200625 2.65757813 1.53125 2.19140625 C1.0259375 1.79824219 0.520625 1.40507813 0 1 C0 0.67 0 0.34 0 0 Z " fill="#4289D9" transform="translate(98,82)"/>
<path d="M0 0 C0.53625 0.226875 1.0725 0.45375 1.625 0.6875 C-3.79038462 3.76442308 -3.79038462 3.76442308 -6.75 3.375 C-7.554375 3.0346875 -7.554375 3.0346875 -8.375 2.6875 C-2.95961538 -0.38942308 -2.95961538 -0.38942308 0 0 Z " fill="#4189D7" transform="translate(52.375,7.3125)"/>
<path d="M0 0 C0.66 0 1.32 0 2 0 C1.50168276 3.68754757 0.89932357 5.60490662 -2 8 C-2 6.35 -2 4.7 -2 3 C-1.34 3 -0.68 3 0 3 C0 2.01 0 1.02 0 0 Z " fill="#3183D6" transform="translate(149,113)"/>
<path d="M0 0 C-0.33 1.32 -0.66 2.64 -1 4 C-2.65 4.33 -4.3 4.66 -6 5 C-3.74193548 0 -3.74193548 0 0 0 Z " fill="#5090DA" transform="translate(105,96)"/>
<path d="M0 0 C0 0.99 0 1.98 0 3 C-1.98 3.99 -1.98 3.99 -4 5 C-4 5.66 -4 6.32 -4 7 C-4.66 7 -5.32 7 -6 7 C-5.8125 5.1875 -5.8125 5.1875 -5 3 C-2.4375 1.25 -2.4375 1.25 0 0 Z " fill="#E3F0FA" transform="translate(71,29)"/>
<path d="M0 0 C5.75 1.625 5.75 1.625 8 5 C5.36 4.34 2.72 3.68 0 3 C0 2.01 0 1.02 0 0 Z " fill="#7BAFE8" transform="translate(117,11)"/>
</svg>
