<?xml version="1.0" encoding="UTF-8"?>
<svg version="1.1" xmlns="http://www.w3.org/2000/svg" width="556" height="163">
<path d="M0 0 C183.48 0 366.96 0 556 0 C556 53.79 556 107.58 556 163 C372.52 163 189.04 163 0 163 C0 109.21 0 55.42 0 0 Z " fill="#FCFCFC" transform="translate(0,0)"/>
<path d="M0 0 C1.92815552 0.0014502 1.92815552 0.0014502 3.89526367 0.00292969 C21.0149509 0.3166778 38.93563596 6.09610496 51.125 18.5625 C52.54054511 19.75133671 53.95733596 20.93869086 55.375 22.125 C62.82637852 28.70414358 68.41112076 36.35853841 72.125 45.5625 C72.64320313 46.70589844 73.16140625 47.84929688 73.6953125 49.02734375 C74.20835937 50.17332031 74.72140625 51.31929687 75.25 52.5 C75.76820313 53.64339844 76.28640625 54.78679688 76.8203125 55.96484375 C82.97608979 72.93930747 80.30729673 96.80891298 73.0012207 112.87084961 C63.4151414 132.84164462 46.07069492 148.43909797 25.18603516 155.84912109 C15.85982188 158.98451638 7.36660804 159.71703554 -2.375 159.625 C-3.2928125 159.62048828 -4.210625 159.61597656 -5.15625 159.61132812 C-7.39590391 159.59966326 -9.63541545 159.58329614 -11.875 159.5625 C-11.875 158.9025 -11.875 158.2425 -11.875 157.5625 C-12.44605469 157.54832031 -13.01710938 157.53414062 -13.60546875 157.51953125 C-23.43934608 156.94106788 -32.27552359 153.85001468 -39.875 147.5625 C-41.38400277 146.7282333 -42.90524829 145.91575596 -44.4375 145.125 C-60.55501041 135.55522819 -72.0524789 116.27124304 -76.58203125 98.59790039 C-79.98051084 83.51883296 -79.24571318 67.05050635 -73.875 52.5625 C-73.38966797 51.24572266 -73.38966797 51.24572266 -72.89453125 49.90234375 C-71.15533379 45.65018342 -69.00527909 42.03543605 -66.12109375 38.4609375 C-64.68330687 36.41069318 -64.68330687 36.41069318 -63.546875 33.19921875 C-61.95684325 29.37100875 -59.67488657 26.8946891 -56.6875 24 C-56.2020874 23.52820313 -55.7166748 23.05640625 -55.21655273 22.5703125 C-51.34300785 18.86457232 -47.26930879 15.61600633 -42.875 12.5625 C-42.31167969 12.0778125 -41.74835937 11.593125 -41.16796875 11.09375 C-37.88121024 8.89884483 -34.35706858 7.80868638 -30.625 6.5625 C-29.1611868 6.0632955 -27.69764383 5.56329789 -26.234375 5.0625 C-25.50041504 4.81814209 -24.76645508 4.57378418 -24.01025391 4.32202148 C-21.90131965 3.60554222 -21.90131965 3.60554222 -20.03271484 2.72680664 C-13.55449171 -0.15249928 -6.99752973 -0.01268079 0 0 Z " fill="#187DE1" transform="translate(84.875,0.4375)"/>
<path d="M0 0 C34.65 0 69.3 0 105 0 C105 0.66 105 1.32 105 2 C107.64 2.66 110.28 3.32 113 4 C108.61147863 5.09713034 108.61147863 5.09713034 105.125 3.59765625 C98.84249591 1.35078847 92.61287112 1.42547347 86 1.4375 C84.71577148 1.4384668 83.43154297 1.43943359 82.10839844 1.44042969 C71.63457859 1.63316698 63.3965407 3.54958682 54 8 C53.09636719 8.35578125 52.19273438 8.7115625 51.26171875 9.078125 C39.92627878 13.57419867 29.11127811 23.22199259 22 33 C21.30341637 34.65438613 20.63903117 36.32254318 20 38 C18.81663301 39.94616453 17.58071169 41.84771101 16.31640625 43.7421875 C6.57194652 60.45523713 5.01845331 82.17270384 9.625 100.75 C13.0105275 112.19687094 18.5668339 121.72181588 26 131 C26.763125 131.95261719 27.52625 132.90523437 28.3125 133.88671875 C33.49818057 139.97823135 38.60949007 143.99405723 45.7265625 147.66015625 C46.47679687 148.10230469 47.22703125 148.54445312 48 149 C48 149.66 48 150.32 48 151 C48.61746094 151.18175781 49.23492187 151.36351562 49.87109375 151.55078125 C54.19358649 152.83371288 58.48842456 154.15123541 62.75 155.625 C66.14304985 156.77610572 69.43494433 157.54294158 73 158 C73 158.66 73 159.32 73 160 C79.27 160 85.54 160 92 160 C91.67 160.66 91.34 161.32 91 162 C60.81538287 165.01846171 30.33516478 163 0 163 C0 109.21 0 55.42 0 0 Z " fill="#F9FCFE" transform="translate(0,0)"/>
<path d="M0 0 C5.84401322 3.16042461 11.45555676 7.47374509 15.05859375 13.11328125 C15.05859375 14.10328125 15.05859375 15.09328125 15.05859375 16.11328125 C13.86234375 16.52578125 12.66609375 16.93828125 11.43359375 17.36328125 C6.04734573 20.16812356 3.67000706 24.41180871 1.61785889 30.03869629 C-0.4382921 37.66595503 0.17040799 46.03093734 0.18359375 53.86328125 C0.16543639 55.83205775 0.14462426 57.80081164 0.12109375 59.76953125 C0.06965117 64.55107052 0.0541343 69.33148073 0.05859375 74.11328125 C-2.84085456 75.07976402 -4.70722105 75.24206857 -7.72265625 75.24609375 C-9.10904297 75.24802734 -9.10904297 75.24802734 -10.5234375 75.25 C-11.48636719 75.24613281 -12.44929688 75.24226563 -13.44140625 75.23828125 C-14.88580078 75.24408203 -14.88580078 75.24408203 -16.359375 75.25 C-17.28363281 75.24871094 -18.20789063 75.24742187 -19.16015625 75.24609375 C-20.42762695 75.24440186 -20.42762695 75.24440186 -21.72070312 75.24267578 C-23.94140625 75.11328125 -23.94140625 75.11328125 -26.94140625 74.11328125 C-26.94505188 73.56284149 -26.94869751 73.01240173 -26.95245361 72.44528198 C-26.99435302 66.70202833 -27.06375012 60.9595683 -27.14892578 55.21679688 C-27.17710369 53.07527616 -27.198334 50.93365207 -27.21240234 48.79199219 C-27.2338755 45.70844718 -27.28054942 42.62614107 -27.33203125 39.54296875 C-27.33325989 38.58961639 -27.33448853 37.63626404 -27.33575439 36.65402222 C-27.49008837 29.60613013 -29.2080367 25.81949812 -34.30078125 20.77734375 C-35.48414063 19.76800781 -35.48414063 19.76800781 -36.69140625 18.73828125 C-37.490625 18.04992187 -38.28984375 17.3615625 -39.11328125 16.65234375 C-39.7165625 16.14445312 -40.31984375 15.6365625 -40.94140625 15.11328125 C-39.76458725 9.19039002 -36.25307146 5.73855971 -31.40234375 2.328125 C-21.81355523 -3.13825983 -10.38606329 -4.14264528 0 0 Z " fill="#F5F7F7" transform="translate(98.94140625,77.88671875)"/>
<path d="M0 0 C3.4375 1.5 3.4375 1.5 6 3 C6.33 2.34 6.66 1.68 7 1 C9.97 1 12.94 1 16 1 C16.04955879 7.85016839 16.08579503 14.70023163 16.10986328 21.55053711 C16.11990049 23.87933165 16.13353314 26.20811366 16.15087891 28.53686523 C16.17522727 31.89049379 16.18650615 35.24395521 16.1953125 38.59765625 C16.20563507 39.63334244 16.21595764 40.66902863 16.22659302 41.73609924 C16.22845226 53.80376276 16.22845226 53.80376276 12.6328125 58.9609375 C12.13523437 59.42757812 11.63765625 59.89421875 11.125 60.375 C10.63257813 60.85710937 10.14015625 61.33921875 9.6328125 61.8359375 C5.21730419 64.98383577 -0.82648559 64.44657372 -6 64 C-10.67394488 62.23428749 -13.76946242 58.41361691 -16 54 C-16 52.68 -16 51.36 -16 50 C-12.62256599 49.71485079 -9.3653205 49.53411687 -6 50 C-4.3125 52.5 -4.3125 52.5 -3 55 C0.62599422 55.41725678 0.62599422 55.41725678 4 55 C5.21693876 52.56612247 5.31959896 50.58161154 5.5625 47.875 C5.64628906 46.96492188 5.73007813 46.05484375 5.81640625 45.1171875 C5.90728516 44.06917969 5.90728516 44.06917969 6 43 C5.45214844 43.3196875 4.90429688 43.639375 4.33984375 43.96875 C0.04519395 45.86155058 -4.41969695 45.77586114 -9 45 C-12 42.375 -12 42.375 -14 39 C-14.52722656 38.1440625 -15.05445313 37.288125 -15.59765625 36.40625 C-17.46051716 31.88141792 -17.47708762 27.96908468 -17.4375 23.125 C-17.45748047 22.26519531 -17.47746094 21.40539062 -17.49804688 20.51953125 C-17.49256035 13.2882935 -15.64081291 8.02916775 -10.875 2.5625 C-7.28336297 -0.43053086 -4.62569694 -0.3083798 0 0 Z " fill="#222528" transform="translate(245,62)"/>
<path d="M0 0 C3.3 0 6.6 0 10 0 C10 6.6 10 13.2 10 20 C11.32 19.01 12.64 18.02 14 17 C19.00886494 16.17140982 23.54226913 16.18002638 28 18.6875 C33.52778485 25.07900123 33.48949712 30.13949858 33.4375 38.3125 C33.4674707 39.96668945 33.4674707 39.96668945 33.49804688 41.65429688 C33.49311231 49.91970058 31.79573653 54.52682156 27.4375 61.5 C23.31853133 64.03474995 18.70485001 63.42205272 14 63 C12.68 62.67 11.36 62.34 10 62 C6.7 62 3.4 62 0 62 C0 41.54 0 21.08 0 0 Z " fill="#212426" transform="translate(357,46)"/>
<path d="M0 0 C3.3 0 6.6 0 10 0 C10 6.6 10 13.2 10 20 C12.31 19.01 14.62 18.02 17 17 C21.06537929 16.21927837 24.19567128 16.51740277 27.8125 18.6875 C33.42296912 24.61856735 33.43770276 29.36723392 33.3125 37.25 C33.31572266 38.24902344 33.31894531 39.24804688 33.32226562 40.27734375 C33.22919042 53.22325853 33.22919042 53.22325853 31 58 C29.68877416 58.70916079 28.35374199 59.37581666 27 60 C26.34 60.99 25.68 61.98 25 63 C21.30897668 63.65032316 17.7051116 63.51991965 14 63 C11.3125 61 11.3125 61 10 59 C10 59.99 10 60.98 10 62 C6.7 62 3.4 62 0 62 C0 41.54 0 21.08 0 0 Z " fill="#292C2E" transform="translate(518,46)"/>
<path d="M0 0 C3.3 0 6.6 0 10 0 C10.43699219 1.14662109 10.43699219 1.14662109 10.8828125 2.31640625 C13.26319064 8.53682838 15.66959554 14.74631771 18.125 20.9375 C18.60195312 22.14277344 19.07890625 23.34804687 19.5703125 24.58984375 C20.91074519 27.78710532 22.44956514 30.89913027 24 34 C24.33 22.78 24.66 11.56 25 0 C28.3 0 31.6 0 35 0 C35 20.46 35 40.92 35 62 C31.37 62 27.74 62 24 62 C23.32739649 60.23141309 22.66211605 58.46003984 22 56.6875 C21.62875 55.70136719 21.2575 54.71523437 20.875 53.69921875 C20 51 20 51 20 48 C19.34 48 18.68 48 18 48 C17.67386719 47.01 17.34773438 46.02 17.01171875 45 C16.57039514 43.66663931 16.12898418 42.33330753 15.6875 41 C15.47416016 40.35160156 15.26082031 39.70320313 15.04101562 39.03515625 C14.82509766 38.38417969 14.60917969 37.73320313 14.38671875 37.0625 C14.19295654 36.47597656 13.99919434 35.88945313 13.79956055 35.28515625 C12.59250894 31.83538432 11.28330214 28.42213903 10 25 C9.67 37.21 9.34 49.42 9 62 C6.03 62 3.06 62 0 62 C0 41.54 0 21.08 0 0 Z " fill="#212427" transform="translate(188,46)"/>
<path d="M0 0 C4.11764552 2.32258653 7.47669909 4.43009727 9 9 C9.08518867 11.80426452 9.1158852 14.5829635 9.09765625 17.38671875 C9.0962413 18.20372757 9.09482635 19.02073639 9.09336853 19.86250305 C9.08777294 22.47087268 9.07522129 25.07915634 9.0625 27.6875 C9.05748443 29.45637897 9.05292162 31.22525928 9.04882812 32.99414062 C9.03780496 37.32946019 9.02054338 41.66471552 9 46 C5.37 46 1.74 46 -2 46 C-2.03758423 44.5773584 -2.03758423 44.5773584 -2.07592773 43.12597656 C-2.1711884 39.59981968 -2.27041441 36.07382041 -2.37231445 32.54785156 C-2.41556707 31.02315614 -2.45724885 29.49841531 -2.49731445 27.97363281 C-2.55525203 25.77915778 -2.61887795 23.58490932 -2.68359375 21.390625 C-2.70030624 20.7113092 -2.71701874 20.03199341 -2.73423767 19.33209229 C-2.83507472 16.09461448 -3.03139176 13.10230396 -4 10 C-5.99954746 9.95745644 -8.00041636 9.95919217 -10 10 C-12.00503509 12.00503509 -11.25588663 16.00025444 -11.31640625 18.75390625 C-11.33718735 19.52935287 -11.35796844 20.3047995 -11.37937927 21.10374451 C-11.44495802 23.58990308 -11.50379799 26.07617045 -11.5625 28.5625 C-11.60567733 30.24415204 -11.64929136 31.92579294 -11.69335938 33.60742188 C-11.80064779 37.73816871 -11.90189132 41.86902536 -12 46 C-15.3 46 -18.6 46 -22 46 C-22.33 34.12 -22.66 22.24 -23 10 C-25.31 10 -27.62 10 -30 10 C-31.98397753 14.16635282 -32.30069028 17.67795628 -32.4140625 22.26953125 C-32.43342865 22.95053391 -32.4527948 23.63153656 -32.4727478 24.33317566 C-32.53218132 26.49282593 -32.578782 28.65253057 -32.625 30.8125 C-32.66321328 32.28322544 -32.70226694 33.75392929 -32.7421875 35.22460938 C-32.83785183 38.81620789 -32.92201575 42.40796913 -33 46 C-36.3 46 -39.6 46 -43 46 C-43 31.15 -43 16.3 -43 1 C-40.03 1 -37.06 1 -34 1 C-33.34 1.66 -32.68 2.32 -32 3 C-31.01 2.34 -30.02 1.68 -29 1 C-26.40625 0.734375 -26.40625 0.734375 -23.5 0.75 C-22.06140625 0.74226563 -22.06140625 0.74226563 -20.59375 0.734375 C-18 1 -18 1 -15 3 C-12.72103051 2.70593942 -11.16866889 2.09887487 -9.1875 0.9375 C-5.83334634 -0.49999442 -3.62891901 -0.48385587 0 0 Z " fill="#2A2D2F" transform="translate(344,62)"/>
<path d="M0 0 C3.3 0 6.6 0 10 0 C10 8.58 10 17.16 10 26 C14.62 26 19.24 26 24 26 C24 17.42 24 8.84 24 0 C27.63 0 31.26 0 35 0 C35 20.46 35 40.92 35 62 C31.7 62 28.4 62 25 62 C25 53.09 25 44.18 25 35 C20.05 35 15.1 35 10 35 C10 43.91 10 52.82 10 62 C6.7 62 3.4 62 0 62 C0 41.54 0 21.08 0 0 Z " fill="#2A2D2F" transform="translate(443,46)"/>
<path d="M0 0 C5.46419793 2.17823222 9.2133376 5.41871955 12.41796875 10.3515625 C14.52797736 16.68158833 14.73326135 23.36827314 12.01953125 29.5234375 C5.88907523 39.18203351 -4.1320432 50.48906549 -15.58203125 53.3515625 C-15.91203125 35.8615625 -16.24203125 18.3715625 -16.58203125 0.3515625 C-11.80957378 -2.03466623 -5.04468971 -1.26689636 0 0 Z " fill="#F6F7F7" transform="translate(131.58203125,92.6484375)"/>
<path d="M0 0 C-0.33 17.16 -0.66 34.32 -1 52 C-10.52753645 50.09449271 -18.42466364 42.82884058 -24 35 C-25.4375 32 -25.4375 32 -26 30 C-26.66 30 -27.32 30 -28 30 C-30.3517698 23.58782764 -31.29811538 17.76761372 -30 11 C-26.89695047 5.73442702 -23.13228059 2.02665362 -17.625 -0.625 C-5.60526316 -1.86842105 -5.60526316 -1.86842105 0 0 Z " fill="#F4F6F7" transform="translate(56,93)"/>
<path d="M0 0 C4.60464601 -0.19368253 7.69770496 -0.11931715 11.94140625 1.81640625 C16.68159351 6.43505025 16.69371611 12.12148897 16.79296875 18.43359375 C16.8123349 19.20196564 16.83170105 19.97033752 16.85165405 20.76199341 C16.91104742 23.19668763 16.95767253 25.63143018 17.00390625 28.06640625 C17.04212318 29.72528011 17.08117704 31.38413492 17.12109375 33.04296875 C17.21671532 37.09229167 17.30089326 41.14170738 17.37890625 45.19140625 C13.04557292 45.19140625 8.71223958 45.19140625 4.37890625 45.19140625 C4.04890625 45.52140625 3.71890625 45.85140625 3.37890625 46.19140625 C-2.29186399 46.80023128 -7.04473877 47.30412741 -11.80859375 43.94140625 C-14.90666964 39.24087731 -15.23626196 34.79267465 -14.62109375 29.19140625 C-13.20879332 25.62702896 -11.78264694 22.44965853 -8.62109375 20.19140625 C-3.43515948 18.25939152 0.93550963 18.00040988 6.37890625 18.19140625 C5.71890625 14.89140625 5.05890625 11.59140625 4.37890625 8.19140625 C2.39890625 8.19140625 0.41890625 8.19140625 -1.62109375 8.19140625 C-2.28109375 10.17140625 -2.94109375 12.15140625 -3.62109375 14.19140625 C-6.92109375 14.19140625 -10.22109375 14.19140625 -13.62109375 14.19140625 C-13.13660688 5.9551294 -13.13660688 5.9551294 -10.93359375 2.69140625 C-7.34081511 0.36095524 -4.19814159 0.3065707 0 0 Z " fill="#212326" transform="translate(279.62109375,62.80859375)"/>
<path d="M0 0 C5.34205582 1.8772084 10.44959546 5.89919092 13 11 C14.32311933 22.45701054 14.32311933 22.45701054 11.6484375 27.59765625 C7.7041445 32.24566673 3.59703752 35.51966722 -2.57421875 36.34375 C-8.23268746 36.6525341 -12.20759198 36.24398268 -16.5625 32.46484375 C-20.77426106 28.17296767 -22.27529168 25.13370029 -22.5625 19.125 C-22.28590646 11.42806947 -19.27940596 7.60503538 -14.375 2 C-9.55507978 -0.85624902 -5.47122408 -0.8601051 0 0 Z " fill="#F4F5F7" transform="translate(90,25)"/>
<path d="M0 0 C3.3 0 6.6 0 10 0 C10.01981934 0.91289795 10.03963867 1.8257959 10.06005859 2.76635742 C10.13836264 6.16782472 10.22506225 9.56886604 10.31738281 12.9699707 C10.35555952 14.43928862 10.39043182 15.90869639 10.421875 17.37817383 C10.46777289 19.49593114 10.52572372 21.6130759 10.5859375 23.73046875 C10.6173584 25.00301514 10.6487793 26.27556152 10.68115234 27.58666992 C10.98215158 30.80892902 11.61791243 33.09761611 13 36 C15.43717258 35.72965366 15.43717258 35.72965366 18 35 C20.37068912 31.44396632 20.34465108 28.82006655 20.4140625 24.70703125 C20.43342865 24.00100266 20.4527948 23.29497406 20.4727478 22.56755066 C20.53245224 20.31598939 20.5788914 18.06437672 20.625 15.8125 C20.66318829 14.28448311 20.70224052 12.75648755 20.7421875 11.22851562 C20.83814596 7.48585065 20.92221011 3.7430849 21 0 C24.3 0 27.6 0 31 0 C31 14.85 31 29.7 31 45 C27.7 45 24.4 45 21 45 C21 44.34 21 43.68 21 43 C20.01 43.66 19.02 44.32 18 45 C13.95468879 45.54051275 10.04389846 45.55932205 6 45 C3.375 42.6875 3.375 42.6875 2 40 C1.34 39.01 0.68 38.02 0 37 C-0.17193073 34.17016801 -0.23208437 31.44118127 -0.1953125 28.61328125 C-0.1924826 27.79627243 -0.18965271 26.97926361 -0.18673706 26.13749695 C-0.17554541 23.52901541 -0.1504429 20.9208777 -0.125 18.3125 C-0.11496888 16.54362475 -0.10584326 14.77474412 -0.09765625 13.00585938 C-0.07560942 8.67044051 -0.0410867 4.33527855 0 0 Z " fill="#323537" transform="translate(483,64)"/>
<path d="M0 0 C2.375 0.6875 2.375 0.6875 3.375 1.6875 C3.49772849 3.28263893 3.55281043 4.88304932 3.58032227 6.48266602 C3.60026749 7.50364883 3.62021271 8.52463165 3.64076233 9.57655334 C3.65747482 10.6869548 3.67418732 11.79735626 3.69140625 12.94140625 C3.71218735 14.07198959 3.73296844 15.20257294 3.75437927 16.36741638 C3.81999797 19.99487985 3.87881677 23.62241833 3.9375 27.25 C3.98067351 29.70248186 4.0242874 32.154956 4.06835938 34.60742188 C4.17569184 40.63403427 4.2774349 46.66072201 4.375 52.6875 C5.77105469 51.72070312 5.77105469 51.72070312 7.1953125 50.734375 C10.14153306 48.83779076 11.9571725 48.08959735 15.375 47.6875 C15.375 49.3375 15.375 50.9875 15.375 52.6875 C10.2229734 55.92708343 5.6176963 57.66711554 -0.3125 58.9375 C-1.05822266 59.11023438 -1.80394531 59.28296875 -2.57226562 59.4609375 C-6.02905312 60.23802086 -9.06564455 60.6875 -12.625 60.6875 C-12.46056396 60.04796387 -12.29612793 59.40842773 -12.12670898 58.74951172 C-11.46379108 54.70361567 -11.54109728 50.78653612 -11.59765625 46.6953125 C-11.61030355 44.92057487 -11.62266443 43.14583519 -11.63476562 41.37109375 C-11.6595492 38.5909168 -11.68751986 35.81084867 -11.72094727 33.03076172 C-11.75129705 30.33560525 -11.76896875 27.64058616 -11.78515625 24.9453125 C-11.79861588 24.1221756 -11.8120755 23.2990387 -11.82594299 22.45095825 C-11.86033816 14.46830731 -9.9719583 8.40552646 -5.625 1.6875 C-2.625 -0.3125 -2.625 -0.3125 0 0 Z " fill="#177CDF" transform="translate(111.625,95.3125)"/>
<path d="M0 0 C1.76923828 0.01353516 1.76923828 0.01353516 3.57421875 0.02734375 C4.47785156 0.03894531 5.38148438 0.05054688 6.3125 0.0625 C6.3125 0.7225 6.3125 1.3825 6.3125 2.0625 C6.910625 2.289375 7.50875 2.51625 8.125 2.75 C10.99261113 4.47056668 11.93309949 6.02781888 13.3125 9.0625 C13.5 12.375 13.5 12.375 13.3125 15.0625 C10.3425 15.0625 7.3725 15.0625 4.3125 15.0625 C3.3225 13.0825 2.3325 11.1025 1.3125 9.0625 C-0.9975 9.3925 -3.3075 9.7225 -5.6875 10.0625 C-5.64969702 12.43483611 -5.64969702 12.43483611 -4.6875 15.0625 C-1.5335034 17.60108263 1.79572608 19.29823648 5.4375 21 C9.11861065 22.84760726 11.3801615 24.2783371 13.3125 28.0625 C14.31529082 34.13654723 14.09789391 40.49181452 10.47265625 45.66015625 C5.43457317 48.93081055 -1.95446003 47.79796885 -7.6875 47.0625 C-11.54300133 45.5855169 -13.4926041 43.59001128 -15.6875 40.0625 C-15.9375 36.25 -15.9375 36.25 -15.6875 33.0625 C-12.3875 33.0625 -9.0875 33.0625 -5.6875 33.0625 C-5.6875 35.0425 -5.6875 37.0225 -5.6875 39.0625 C-3.35455225 39.10491723 -1.02047433 39.10342937 1.3125 39.0625 C2.54517348 38.05413938 2.54517348 38.05413938 2.41015625 35.99609375 C2.39855469 35.17238281 2.38695312 34.34867188 2.375 33.5 C2.36597656 32.67371094 2.35695313 31.84742187 2.34765625 30.99609375 C2.33605469 30.35800781 2.32445312 29.71992187 2.3125 29.0625 C0.8275 28.753125 0.8275 28.753125 -0.6875 28.4375 C-6.83065689 26.68944723 -12.29396514 22.46130546 -15.6875 17.0625 C-16.20263791 11.65355196 -16.10078621 8.48713028 -12.6875 4.0625 C-9.02660495 -0.20854423 -5.40272135 -0.05349229 0 0 Z " fill="#222527" transform="translate(424.6875,61.9375)"/>
<path d="M0 0 C3 0 3 0 5.5 2.3125 C6.325 3.199375 7.15 4.08625 8 5 C8.8971875 5.7734375 8.8971875 5.7734375 9.8125 6.5625 C11 8 11 8 11 12 C11.66 12 12.32 12 13 12 C13.75782165 17.38677989 14.14878653 22.6340803 14.1328125 28.078125 C14.13424759 29.17891388 14.13424759 29.17891388 14.13571167 30.30194092 C14.13638666 31.83801358 14.13458038 33.37408921 14.13037109 34.91015625 C14.12498192 37.25787723 14.13035505 39.60540962 14.13671875 41.953125 C14.13605845 43.45312542 14.13477829 44.95312572 14.1328125 46.453125 C14.13483673 47.15109192 14.13686096 47.84905884 14.13894653 48.56817627 C14.12310957 51.85690067 14.01191011 54.85473818 13 58 C13.66 58 14.32 58 15 58 C14.67 58.99 14.34 59.98 14 61 C12.58297487 60.85769192 11.1663904 60.71099254 9.75 60.5625 C8.96109375 60.48128906 8.1721875 60.40007812 7.359375 60.31640625 C3.22987677 59.76261592 0.65490557 59.40806164 -2 56 C-2.32952881 53.55795288 -2.32952881 53.55795288 -2.26464844 50.62646484 C-2.24762878 49.52877777 -2.23060913 48.4310907 -2.21307373 47.30014038 C-2.17885315 46.11570343 -2.14463257 44.93126648 -2.109375 43.7109375 C-2.08530579 42.49677155 -2.06123657 41.28260559 -2.03643799 40.03164673 C-1.98275082 37.46429833 -1.92174282 34.89709421 -1.85400391 32.33007812 C-1.75024466 28.38430414 -1.66806245 24.4385425 -1.58984375 20.4921875 C-1.53511206 18.0025762 -1.47916413 15.51299127 -1.421875 13.0234375 C-1.39575134 11.83495209 -1.36962769 10.64646667 -1.3427124 9.42196655 C-1.31308411 8.3305838 -1.28345581 7.23920105 -1.25292969 6.11474609 C-1.22833679 5.14894623 -1.2037439 4.18314636 -1.17840576 3.18807983 C-1 1 -1 1 0 0 Z " fill="#187CE0" transform="translate(57,95)"/>
<path d="M0 0 C4.46403531 2.11454304 7.0831264 4.42080195 9 9 C9.64450072 13.97186272 8.92376063 17.29150795 6.25390625 21.421875 C3.6538119 24.69426789 0.99976607 26.61318394 -3.140625 27.4140625 C-8.28893331 27.7467763 -11.65335905 26.71066343 -15.625 23.41015625 C-18.70480026 20.2516111 -19.16898812 16.93597085 -19.5625 12.6875 C-19.40809839 7.84416536 -17.69263225 4.90951376 -14.33203125 1.48046875 C-9.81467617 -1.38733288 -5.10436638 -0.9570687 0 0 Z " fill="#EEF3F7" transform="translate(132,54)"/>
<path d="M0 0 C2.5949701 1.37724848 4.79712316 3.06430377 7 5 C7.55429687 5.43957031 8.10859375 5.87914062 8.6796875 6.33203125 C11.43249837 9.80969469 10.44349422 14.80528388 10 19 C8.23139226 23.61803133 5.40802625 25.83605984 1 28 C-2.45583981 28.59812612 -5.55145724 28.66894809 -9 28 C-11.9375 25.8125 -11.9375 25.8125 -14 23 C-14.598125 22.236875 -15.19625 21.47375 -15.8125 20.6875 C-17.42734085 17.03286018 -17.59198488 13.93589946 -17 10 C-15.32313464 6.3108962 -13.04315601 3.66276151 -10 1 C-6.3315241 -0.2228253 -3.86340281 -0.38634028 0 0 Z " fill="#EEF3F7" transform="translate(48,53)"/>
<path d="M0 0 C1.57043101 0.01330874 3.14079971 0.03717648 4.7109375 0.0703125 C5.51273438 0.07933594 6.31453125 0.08835937 7.140625 0.09765625 C9.12252273 0.12125027 11.10426731 0.15712185 13.0859375 0.1953125 C13.4159375 1.1853125 13.7459375 2.1753125 14.0859375 3.1953125 C15.81358914 4.90820255 15.81358914 4.90820255 17.8984375 6.5703125 C21.59958575 9.70766577 24.888509 12.8004555 27.0859375 17.1953125 C27.17543167 18.64568357 27.2035219 20.10009879 27.19946289 21.55322266 C27.19938736 22.45400543 27.19931183 23.35478821 27.19923401 24.28286743 C27.19407272 25.25686493 27.18891144 26.23086243 27.18359375 27.234375 C27.1821788 28.23036713 27.18076385 29.22635925 27.17930603 30.25253296 C27.17369686 33.44182303 27.1611428 36.63104356 27.1484375 39.8203125 C27.14342368 41.97916565 27.13886057 44.13801991 27.13476562 46.296875 C27.12457423 51.59640268 27.10500057 56.89577951 27.0859375 62.1953125 C35.9959375 62.1953125 44.9059375 62.1953125 54.0859375 62.1953125 C54.06273437 59.19824219 54.03953125 56.20117188 54.015625 53.11328125 C54.00003246 50.21411564 53.98788544 47.31495467 53.97607422 44.41577148 C53.96600977 42.39914869 53.95235703 40.38254051 53.93505859 38.3659668 C53.91082981 35.46920161 53.89945891 32.57262919 53.890625 29.67578125 C53.88030243 28.77256638 53.86997986 27.8693515 53.85934448 26.93876648 C53.85911789 25.677799 53.85911789 25.677799 53.85888672 24.39135742 C53.8544455 23.65189377 53.85000427 22.91243011 53.84542847 22.15055847 C54.0859375 20.1953125 54.0859375 20.1953125 56.0859375 17.1953125 C56.13658587 23.69145382 56.1716492 30.18754435 56.19580078 36.68383789 C56.20586756 38.89446923 56.21952198 41.10508722 56.23681641 43.31567383 C56.26103488 46.49043061 56.27241377 49.66501156 56.28125 52.83984375 C56.29157257 53.83055374 56.30189514 54.82126373 56.31253052 55.84199524 C56.31275711 57.22308723 56.31275711 57.22308723 56.31298828 58.63208008 C56.3174295 59.4426033 56.32187073 60.25312653 56.32644653 61.08821106 C56.0859375 63.1953125 56.0859375 63.1953125 54.0859375 66.1953125 C55.64054687 65.74478516 55.64054687 65.74478516 57.2265625 65.28515625 C58.59621034 64.90052912 59.96601013 64.51644281 61.3359375 64.1328125 C62.01785156 63.93365234 62.69976562 63.73449219 63.40234375 63.52929688 C69.66935911 61.79521981 69.66935911 61.79521981 73.0859375 63.1953125 C57.6446466 69.10132449 44.52279748 70.48509064 28.0859375 70.1953125 C28.0859375 69.5353125 28.0859375 68.8753125 28.0859375 68.1953125 C27.09013672 68.12183594 27.09013672 68.12183594 26.07421875 68.046875 C17.30386369 67.30427559 17.30386369 67.30427559 13.0859375 65.1953125 C16.20774151 64.22869887 18.60677545 64.20542341 21.8359375 64.6328125 C22.63515625 64.73464844 23.434375 64.83648437 24.2578125 64.94140625 C25.16273437 65.06708984 25.16273437 65.06708984 26.0859375 65.1953125 C26.5809375 64.2053125 26.5809375 64.2053125 27.0859375 63.1953125 C26.4259375 63.1953125 25.7659375 63.1953125 25.0859375 63.1953125 C25.0859375 48.0153125 25.0859375 32.8353125 25.0859375 17.1953125 C24.4259375 17.1953125 23.7659375 17.1953125 23.0859375 17.1953125 C22.9209375 16.4940625 22.7559375 15.7928125 22.5859375 15.0703125 C20.42486483 10.92825655 17.04506591 8.5955341 13.0859375 6.1953125 C12.4259375 6.1953125 11.7659375 6.1953125 11.0859375 6.1953125 C11.0859375 5.2053125 11.0859375 4.2153125 11.0859375 3.1953125 C5.4759375 2.8653125 -0.1340625 2.5353125 -5.9140625 2.1953125 C-3.9140625 0.1953125 -3.9140625 0.1953125 0 0 Z " fill="#4B90DD" transform="translate(44.9140625,89.8046875)"/>
<path d="M0 0 C2.97 0 5.94 0 9 0 C9 14.52 9 29.04 9 44 C6.03 44 3.06 44 0 44 C0 29.48 0 14.96 0 0 Z " fill="#232528" transform="translate(395,64)"/>
<path d="M0 0 C0.33 0 0.66 0 1 0 C1.02531626 7.20824434 1.04285262 14.41647725 1.05493164 21.62475586 C1.0599662 24.07788522 1.06679424 26.53101157 1.07543945 28.98413086 C1.08754332 32.5063552 1.09323703 36.02853994 1.09765625 39.55078125 C1.10281754 40.65086014 1.10797882 41.75093903 1.11329651 42.88435364 C1.11337204 43.90518539 1.11344757 44.92601715 1.11352539 45.9777832 C1.115746 46.87713089 1.11796661 47.77647858 1.12025452 48.70307922 C1 51 1 51 0 54 C0.99 54.33 1.98 54.66 3 55 C3 55.66 3 56.32 3 57 C-5.51466993 55.5403423 -5.51466993 55.5403423 -8.37109375 52.578125 C-10.24965836 50.75812475 -12.11464712 49.82266142 -14.4375 48.625 C-19.18907206 45.84393282 -22.7341951 42.51101639 -26.4375 38.5 C-26.94531006 37.95424316 -27.45312012 37.40848633 -27.97631836 36.84619141 C-31.00259476 33.46653678 -33.14067269 30.18506214 -35 26 C-33.68 25.34 -32.36 24.68 -31 24 C-31 19.05 -31 14.1 -31 9 C-30.34 8.67 -29.68 8.34 -29 8 C-28.93941406 8.79664062 -28.87882812 9.59328125 -28.81640625 10.4140625 C-28.20332134 18.24332697 -28.20332134 18.24332697 -27 26 C-26.34 26 -25.68 26 -25 26 C-23.77934444 27.62754075 -22.62423979 29.30442523 -21.5 31 C-15.58090973 39.33614164 -9.37984801 43.98006514 0 48 C0 32.16 0 16.32 0 0 Z " fill="#3083DB" transform="translate(55,97)"/>
<path d="M0 0 C2.97 0 5.94 0 9 0 C9 14.19 9 28.38 9 43 C6.36 43 3.72 43 1 43 C1 41.68 1 40.36 1 39 C0.01 38.67 -0.98 38.34 -2 38 C-1.76228882 36.74968994 -1.76228882 36.74968994 -1.51977539 35.47412109 C-0.96414096 31.76032217 -0.78868817 28.16743453 -0.68359375 24.4140625 C-0.66281265 23.71227875 -0.64203156 23.010495 -0.62062073 22.28744507 C-0.55573676 20.06672042 -0.4965277 17.84588724 -0.4375 15.625 C-0.39425646 14.11066629 -0.3506404 12.59634317 -0.30664062 11.08203125 C-0.20011914 7.38813345 -0.09868323 3.69411646 0 0 Z " fill="#1A1D20" transform="translate(504,64)"/>
<path d="M0 0 C3.06516582 1.33609792 4.4131649 2.36620398 6.4375 5.0625 C6.98341321 8.05349993 6.90500463 10.9692561 6.8125 14 C6.81121094 14.79857422 6.80992187 15.59714844 6.80859375 16.41992188 C6.74527227 20.66597884 6.57582679 24.28096235 4.4375 28.0625 C1.18923326 30.22801116 0.20655843 30.61406953 -3.5625 30.0625 C-5.6875 28.69140625 -5.6875 28.69140625 -7.5625 26.0625 C-8.19236948 22.57729899 -8.16594551 19.15835623 -8.125 15.625 C-8.14884766 14.68333984 -8.17269531 13.74167969 -8.19726562 12.77148438 C-8.18725879 8.04492293 -8.09847275 5.77477957 -5.1875 1.90625 C-2.5625 0.0625 -2.5625 0.0625 0 0 Z " fill="#E2E2E3" transform="translate(374.5625,70.9375)"/>
<path d="M0 0 C0.99 0.66 1.98 1.32 3 2 C3.66175289 5.37314039 3.46289218 8.81974769 3.4375 12.25 C3.45748047 13.19230469 3.47746094 14.13460937 3.49804688 15.10546875 C3.49390826 21.00712822 3.01059462 24.55602611 -1 29 C-3.5625 29.5625 -3.5625 29.5625 -6 29 C-8.5048111 27.12139167 -8.98700625 26.03898126 -10 23 C-10.22580761 19.85804835 -10.18514806 16.71175013 -10.1875 13.5625 C-10.19974609 12.70333984 -10.21199219 11.84417969 -10.22460938 10.95898438 C-10.22654297 10.12818359 -10.22847656 9.29738281 -10.23046875 8.44140625 C-10.23457764 7.68545166 -10.23868652 6.92949707 -10.24291992 6.15063477 C-9.96182001 3.66198241 -9.37460226 2.0915124 -8 0 C-4.65649854 -1.11450049 -3.33342063 -0.91669067 0 0 Z " fill="#EBEBEB" transform="translate(538,72)"/>
<path d="M0 0 C0.33 0 0.66 0 1 0 C1 20.46 1 40.92 1 62 C0.67 62 0.34 62 0 62 C0 59.69 0 57.38 0 55 C-1.65 55.66 -3.3 56.32 -5 57 C-4.95359375 56.11957031 -4.9071875 55.23914063 -4.859375 54.33203125 C-4.82328125 53.17058594 -4.7871875 52.00914063 -4.75 50.8125 C-4.70359375 49.66394531 -4.6571875 48.51539063 -4.609375 47.33203125 C-5.08726794 43.25560451 -6.05854887 41.82476547 -9 39 C-11.89743315 37.24614411 -11.89743315 37.24614411 -15.0625 35.875 C-21.97850839 32.71193065 -21.97850839 32.71193065 -24 30 C-23.6875 27.3125 -23.6875 27.3125 -23 25 C-19.535 24.505 -19.535 24.505 -16 24 C-15.690625 24.969375 -15.38125 25.93875 -15.0625 26.9375 C-13.37918483 30.14945448 -13.37918483 30.14945448 -10.796875 30.62109375 C-8.52061916 30.85372996 -6.28756601 30.99040853 -4 31 C-3.67 29.68 -3.34 28.36 -3 27 C-2.67 27.99 -2.34 28.98 -2 30 C-1.34 30 -0.68 30 0 30 C0 20.1 0 10.2 0 0 Z " fill="#E1E1E2" transform="translate(442,46)"/>
<path d="M0 0 C2.81858163 4.62850696 2.29484119 9.95229137 2.25 15.1875 C2.25773438 16.10208984 2.26546875 17.01667969 2.2734375 17.95898438 C2.27085937 18.83232422 2.26828125 19.70566406 2.265625 20.60546875 C2.26336914 21.40106201 2.26111328 22.19665527 2.25878906 23.01635742 C2 25 2 25 0 27 C-3.625 27.125 -3.625 27.125 -7 27 C-7.66 25.68 -8.32 24.36 -9 23 C-9.66 23 -10.32 23 -11 23 C-11.0580476 19.72924117 -11.09361165 16.45861476 -11.125 13.1875 C-11.14175781 12.25873047 -11.15851563 11.32996094 -11.17578125 10.37304688 C-11.18222656 9.48037109 -11.18867188 8.58769531 -11.1953125 7.66796875 C-11.20578613 6.84578857 -11.21625977 6.0236084 -11.22705078 5.17651367 C-11 3 -11 3 -9 0 C-5.4268387 -1.19105377 -3.59356359 -1.0704232 0 0 Z " fill="#E9E9EA" transform="translate(249,72)"/>
<path d="M0 0 C-0.33 17.16 -0.66 34.32 -1 52 C-6.625 50.875 -6.625 50.875 -9.8125 48.4375 C-10.41707031 47.98246094 -11.02164063 47.52742188 -11.64453125 47.05859375 C-12.31548828 46.53458984 -12.31548828 46.53458984 -13 46 C-11 45 -11 45 -7.9375 45.8125 C-5 47 -5 47 -4 49 C-3.97494385 47.68805664 -3.9498877 46.37611328 -3.92407227 45.02441406 C-3.82989329 40.15647633 -3.72969806 35.28867779 -3.62768555 30.42089844 C-3.58437642 28.31416073 -3.54269847 26.20738883 -3.50268555 24.10058594 C-3.44488573 21.07216081 -3.38121904 18.04390715 -3.31640625 15.015625 C-3.29969376 14.07382385 -3.28298126 13.13202271 -3.26576233 12.16168213 C-3.24581711 11.28107117 -3.22587189 10.40046021 -3.20532227 9.49316406 C-3.18977798 8.72039124 -3.1742337 7.94761841 -3.15821838 7.15142822 C-2.99981486 4.99748251 -2.58781794 3.07436562 -2 1 C-10.21525689 0.65816158 -10.21525689 0.65816158 -18 3 C-19.35432675 4.31200404 -20.68733482 5.64631404 -22 7 C-23.96879323 8.06011943 -25.96435867 9.07470849 -28 10 C-26.42800663 6.14147082 -24.17110109 3.67781869 -21 1 C-14.62031843 -1.67946626 -6.60714188 -2.20238063 0 0 Z " fill="#E4F2FE" transform="translate(56,93)"/>
<path d="M0 0 C3.3 0 6.6 0 10 0 C10 6.6 10 13.2 10 20 C10.99 19.67 11.98 19.34 13 19 C13 19.66 13 20.32 13 21 C11.68 21 10.36 21 9 21 C9 14.4 9 7.8 9 1 C6.69 1 4.38 1 2 1 C2 20.8 2 40.6 2 61 C4.31 61 6.62 61 9 61 C9 60.01 9 59.02 9 58 C10.32 58.66 11.64 59.32 13 60 C10 62 10 62 0 62 C0 41.54 0 21.08 0 0 Z " fill="#323335" transform="translate(357,46)"/>
<path d="M0 0 C0.80974903 2.84313331 1.12241859 5.35702965 1.11352539 8.30957031 C1.11341209 9.5704245 1.11341209 9.5704245 1.11329651 10.85675049 C1.10813522 11.75480408 1.10297394 12.65285767 1.09765625 13.578125 C1.0962413 14.5046991 1.09482635 15.43127319 1.09336853 16.38592529 C1.08777824 19.34064992 1.0752275 22.29529833 1.0625 25.25 C1.05748375 27.25520724 1.05292106 29.26041567 1.04882812 31.265625 C1.03781199 36.17711263 1.020554 41.0885434 1 46 C0.01 46.495 0.01 46.495 -1 47 C-1.99 46.34 -2.98 45.68 -4 45 C-3.01 45 -2.02 45 -1 45 C-1.00523682 43.74340576 -1.01047363 42.48681152 -1.01586914 41.19213867 C-1.03395417 36.53491934 -1.04544487 31.87770312 -1.05493164 27.22045898 C-1.05996382 25.20385211 -1.06679014 23.1872489 -1.07543945 21.1706543 C-1.08755373 18.27391661 -1.09323943 15.37722712 -1.09765625 12.48046875 C-1.10281754 11.57725388 -1.10797882 10.674039 -1.11329651 9.74345398 C-1.11337204 8.90280899 -1.11344757 8.062164 -1.11352539 7.19604492 C-1.115746 6.45658127 -1.11796661 5.71711761 -1.12025452 4.95524597 C-1 3 -1 3 0 0 Z M18 46 C2.5587091 51.90601199 -10.56314002 53.28977814 -27 53 C-27 52.34 -27 51.68 -27 51 C-28.98 51 -30.96 51 -33 51 C-33 50.67 -33 50.34 -33 50 C-31.89543457 50.00785522 -31.89543457 50.00785522 -30.76855469 50.01586914 C-27.42904515 50.03666867 -24.08954926 50.04966968 -20.75 50.0625 C-19.59113281 50.07087891 -18.43226562 50.07925781 -17.23828125 50.08789062 C-16.12324219 50.09111328 -15.00820312 50.09433594 -13.859375 50.09765625 C-12.83295898 50.10289307 -11.80654297 50.10812988 -10.74902344 50.11352539 C-8.29945371 50.01236643 -6.29903466 49.83881014 -4 49 C-3.67 48.34 -3.34 47.68 -3 47 C-2.34 47 -1.68 47 -1 47 C-1 47.66 -1 48.32 -1 49 C0.03640625 48.69964844 1.0728125 48.39929688 2.140625 48.08984375 C3.51027284 47.70521662 4.88007263 47.32113031 6.25 46.9375 C6.93191406 46.73833984 7.61382812 46.53917969 8.31640625 46.33398438 C14.58342161 44.59990731 14.58342161 44.59990731 18 46 Z " fill="#4E91DC" transform="translate(100,107)"/>
<path d="M0 0 C0.66 0 1.32 0 2 0 C2.77046965 2.75275764 3.13803396 5.23894518 3.18945312 8.09423828 C3.20617065 8.88831085 3.22288818 9.68238342 3.2401123 10.5005188 C3.25368774 11.34855072 3.26726318 12.19658264 3.28125 13.0703125 C3.29965942 13.94775116 3.31806885 14.82518982 3.33703613 15.72921753 C3.41562202 19.47902401 3.48359768 23.22900434 3.55224609 26.97900391 C3.60390484 29.71786553 3.66116323 32.45657016 3.71875 35.1953125 C3.73232544 36.04739288 3.74590088 36.89947327 3.7598877 37.77737427 C3.73487536 42.02407163 3.73487536 42.02407163 5 46 C6.65 46 8.3 46 10 46 C10 45.34 10 44.68 10 44 C11.32 44.33 12.64 44.66 14 45 C12.33333333 46.33333333 10.66666667 47.66666667 9 49 C8.13375 49.7425 7.2675 50.485 6.375 51.25 C4 53 4 53 1 53 C0.67 35.51 0.34 18.02 0 0 Z " fill="#B6D3F7" transform="translate(115,93)"/>
<path d="M0 0 C0.33 0 0.66 0 1 0 C1.02531626 7.20824434 1.04285262 14.41647725 1.05493164 21.62475586 C1.0599662 24.07788522 1.06679424 26.53101157 1.07543945 28.98413086 C1.08754332 32.5063552 1.09323703 36.02853994 1.09765625 39.55078125 C1.10281754 40.65086014 1.10797882 41.75093903 1.11329651 42.88435364 C1.11337204 43.90518539 1.11344757 44.92601715 1.11352539 45.9777832 C1.115746 46.87713089 1.11796661 47.77647858 1.12025452 48.70307922 C1 51 1 51 0 54 C0.99 54.33 1.98 54.66 3 55 C3 55.66 3 56.32 3 57 C-1.32160842 56.25915284 -5.11699711 55.23369155 -8.8125 52.8125 C-10.67008365 49.97724075 -10.18630774 47.2914367 -10 44 C-6.66666667 45.33333333 -3.33333333 46.66666667 0 48 C0 32.16 0 16.32 0 0 Z " fill="#3F89DD" transform="translate(55,97)"/>
<path d="M0 0 C0.25373128 4.31343181 0.42037032 7.93801182 -1.1875 12 C-3 14 -3 14 -5.5 15 C-8 15 -8 15 -9.8125 14 C-11.6643548 10.88108665 -11.43554257 8.54656095 -11 5 C-7.79653564 0.80235704 -5.26904423 0 0 0 Z " fill="#E7E7E7" transform="translate(286,87)"/>
<path d="M0 0 C3.63 0 7.26 0 11 0 C11 3.3 11 6.6 11 10 C7.37 10 3.74 10 0 10 C0 6.7 0 3.4 0 0 Z " fill="#37393B" transform="translate(394,46)"/>
<path d="M0 0 C0.66 0 1.32 0 2 0 C2.33 12.87 2.66 25.74 3 39 C5.29308963 40.14654482 6.79909656 40.19729117 9.3515625 40.31640625 C10.62773438 40.37924805 10.62773438 40.37924805 11.9296875 40.44335938 C12.81914063 40.48267578 13.70859375 40.52199219 14.625 40.5625 C15.97078125 40.62727539 15.97078125 40.62727539 17.34375 40.69335938 C19.56234283 40.79956861 21.7810488 40.90161194 24 41 C24 41.33 24 41.66 24 42 C20.5625177 42.02901394 17.12506688 42.04680335 13.6875 42.0625 C12.71103516 42.07087891 11.73457031 42.07925781 10.72851562 42.08789062 C9.79072266 42.09111328 8.85292969 42.09433594 7.88671875 42.09765625 C7.02264404 42.10289307 6.15856934 42.10812988 5.26831055 42.11352539 C3 42 3 42 0 41 C0 27.47 0 13.94 0 0 Z " fill="#CAE4FA" transform="translate(72,111)"/>
<path d="M0 0 C0.6796875 1.6328125 0.6796875 1.6328125 1 4 C-0.1796875 6.8046875 -0.1796875 6.8046875 -1.875 9.875 C-5.12523357 15.78588988 -6.16291786 20.60232083 -6 27.3125 C-5.96264148 28.87455333 -5.95294038 30.43820884 -6 32 C-6.495 32.495 -6.495 32.495 -7 33 C-7.15686249 34.55948542 -7.25076639 36.12542668 -7.31640625 37.69140625 C-7.35830078 38.63564453 -7.40019531 39.57988281 -7.44335938 40.55273438 C-7.48267578 41.54595703 -7.52199219 42.53917969 -7.5625 43.5625 C-7.60568359 44.55958984 -7.64886719 45.55667969 -7.69335938 46.58398438 C-7.79980298 49.0558415 -7.90181928 51.5278031 -8 54 C-11.01383227 49.47925159 -10.38309073 45.07410329 -10.375 39.75 C-10.37338867 38.668396 -10.37177734 37.58679199 -10.37011719 36.47241211 C-10.17283508 23.50691612 -7.27921365 10.91882048 0 0 Z " fill="#438ADA" transform="translate(17,41)"/>
<path d="M0 0 C2.80561393 1.40280696 3.00680507 3.0509005 4.125 5.9375 C4.47820312 6.83339844 4.83140625 7.72929688 5.1953125 8.65234375 C6 11 6 11 6 13 C5.34 13 4.68 13 4 13 C4 12.34 4 11.68 4 11 C3.34 11 2.68 11 2 11 C2 19.91 2 28.82 2 38 C1.34 38 0.68 38 0 38 C0 25.46 0 12.92 0 0 Z " fill="#C5C6C5" transform="translate(197,70)"/>
<path d="M0 0 C1.57043101 0.01330874 3.14079971 0.03717648 4.7109375 0.0703125 C5.51273438 0.07933594 6.31453125 0.08835937 7.140625 0.09765625 C9.12252273 0.12125027 11.10426731 0.15712185 13.0859375 0.1953125 C13.4159375 1.1853125 13.7459375 2.1753125 14.0859375 3.1953125 C15.81358914 4.90820255 15.81358914 4.90820255 17.8984375 6.5703125 C25.92947859 13.50555624 25.92947859 13.50555624 26.3203125 17.7265625 C26.3343812 20.23079188 26.26052555 22.69773352 26.0859375 25.1953125 C25.7559375 25.1953125 25.4259375 25.1953125 25.0859375 25.1953125 C25.0859375 22.5553125 25.0859375 19.9153125 25.0859375 17.1953125 C24.4259375 17.1953125 23.7659375 17.1953125 23.0859375 17.1953125 C22.9209375 16.4940625 22.7559375 15.7928125 22.5859375 15.0703125 C20.42486483 10.92825655 17.04506591 8.5955341 13.0859375 6.1953125 C12.4259375 6.1953125 11.7659375 6.1953125 11.0859375 6.1953125 C11.0859375 5.2053125 11.0859375 4.2153125 11.0859375 3.1953125 C5.4759375 2.8653125 -0.1340625 2.5353125 -5.9140625 2.1953125 C-3.9140625 0.1953125 -3.9140625 0.1953125 0 0 Z " fill="#4287D4" transform="translate(44.9140625,89.8046875)"/>
<path d="M0 0 C2.97 0 5.94 0 9 0 C9.02473296 6.88679747 9.04287571 13.77356904 9.05493164 20.66040039 C9.05995801 23.00285289 9.06678008 25.34530225 9.07543945 27.68774414 C9.08757918 31.05616022 9.09324531 34.42453478 9.09765625 37.79296875 C9.10281754 38.83897751 9.10797882 39.88498627 9.11329651 40.96269226 C9.11337204 41.94333145 9.11344757 42.92397064 9.11352539 43.93432617 C9.115746 44.79370285 9.11796661 45.65307953 9.12025452 46.53849792 C8.99457736 49.11099661 8.56648426 51.49067271 8 54 C7.67 54 7.34 54 7 54 C7.33 36.84 7.66 19.68 8 2 C5.69 2 3.38 2 1 2 C1 3.32 1 4.64 1 6 C0.01 6 -0.98 6 -2 6 C-1.49396008 3.83125748 -1.00016187 2.00032373 0 0 Z " fill="#5C5D5E" transform="translate(252,63)"/>
<path d="M0 0 C-0.99 0.495 -0.99 0.495 -2 1 C-2.33 1.99 -2.66 2.98 -3 4 C-6.36920154 5.38591269 -9.96907657 5.13317616 -13.5625 5.125 C-14.69816406 5.12757813 -15.83382812 5.13015625 -17.00390625 5.1328125 C-20 5 -20 5 -23 4 C-23 3.01 -23 2.02 -23 1 C-20.29178874 0.83111377 -17.58345903 0.66482399 -14.875 0.5 C-14.11445312 0.45230469 -13.35390625 0.40460938 -12.5703125 0.35546875 C-8.3724967 0.10215228 -4.20798902 -0.05377622 0 0 Z " fill="#1C78D8" transform="translate(99,153)"/>
<path d="M0 0 C0.33 0 0.66 0 1 0 C1 20.13 1 40.26 1 61 C3.64 61 6.28 61 9 61 C9 60.01 9 59.02 9 58 C10.32 58.66 11.64 59.32 13 60 C10 62 10 62 0 62 C0 41.54 0 21.08 0 0 Z " fill="#818283" transform="translate(357,46)"/>
<path d="M0 0 C1.32 0.66 2.64 1.32 4 2 C4 2.66 4 3.32 4 4 C4.66 4 5.32 4 6 4 C5.52656383 15.77060261 4.08899782 22.61186775 -3 32 C-3.99 31.67 -4.98 31.34 -6 31 C-5.4225 30.28457031 -4.845 29.56914062 -4.25 28.83203125 C0.77164185 22.09291814 2.87833486 17.44503202 2.4765625 9.0078125 C1.97478278 5.84084216 1.10367614 3.0059472 0 0 Z " fill="#3D86D7" transform="translate(142,100)"/>
<path d="M0 0 C0.33 0 0.66 0 1 0 C1 15.18 1 30.36 1 46 C-4.625 44.875 -4.625 44.875 -7.8125 42.4375 C-8.41707031 41.98246094 -9.02164063 41.52742188 -9.64453125 41.05859375 C-10.31548828 40.53458984 -10.31548828 40.53458984 -11 40 C-9 39 -9 39 -6.0625 39.75 C-3 41 -3 41 0 44 C0 29.48 0 14.96 0 0 Z " fill="#ADCCF5" transform="translate(54,99)"/>
<path d="M0 0 C9 0 9 0 13 1 C12.01 2.485 12.01 2.485 11 4 C7.7 3.34 4.4 2.68 1 2 C1 15.53 1 29.06 1 43 C0.67 43 0.34 43 0 43 C0 28.81 0 14.62 0 0 Z " fill="#1E1F22" transform="translate(302,64)"/>
<path d="M0 0 C5.32580585 5.55736262 4.19280905 14.88677467 4.1875 22.125 C4.1884668 23.49628052 4.1884668 23.49628052 4.18945312 24.89526367 C4.13139203 32.4095566 3.39188742 39.60559808 2 47 C1.67 47 1.34 47 1 47 C0.97274659 45.2709226 0.95349013 43.54171824 0.9375 41.8125 C0.92589844 40.84957031 0.91429687 39.88664062 0.90234375 38.89453125 C1 36 1 36 1.4921875 33.54296875 C3.24734484 24.75368086 2.00379041 15.4655549 0.4375 6.7421875 C0 4 0 4 0 0 Z " fill="#3C86D7" transform="translate(160,56)"/>
<path d="M0 0 C0 3.13751221 -0.35179805 4.39757586 -2 7 C-2.99 7.33 -3.98 7.66 -5 8 C-5 8.99 -5 9.98 -5 11 C-4.01 11.33 -3.02 11.66 -2 12 C-3.98 12.99 -5.96 13.98 -8 15 C-8 13.68 -8 12.36 -8 11 C-11.48249231 12.25756667 -14.06465849 13.7731892 -17 16 C-17.66 16 -18.32 16 -19 16 C-19 15.34 -19 14.68 -19 14 C-17.36291866 12.95226794 -15.688699 11.9623271 -14 11 C-12.11044825 9.68737021 -10.23569115 8.35322993 -8.375 7 C-7.43398437 6.319375 -6.49296875 5.63875 -5.5234375 4.9375 C-3.5015267 3.38507313 -1.73174726 1.85959437 0 0 Z " fill="#3A87D9" transform="translate(135,132)"/>
<path d="M0 0 C0 0.66 0 1.32 0 2 C1.98 2 3.96 2 6 2 C6.495 3.485 6.495 3.485 7 5 C5.824375 4.67 4.64875 4.34 3.4375 4 C-7.132223 1.69933474 -17.34514855 1.91132535 -27 7 C-27 6.01 -27 5.02 -27 4 C-18.19262496 -0.84730223 -9.73537941 -0.40658197 0 0 Z " fill="#4489D8" transform="translate(94,74)"/>
<path d="M0 0 C1.65 0 3.3 0 5 0 C5 0.99 5 1.98 5 3 C5.66 3 6.32 3 7 3 C9.25929298 7.51858597 9.23967948 11.04662417 9 16 C7.86848239 19.39455284 6.5712768 20.57997478 4 23 C3.2575 23.8971875 3.2575 23.8971875 2.5 24.8125 C2.005 25.204375 1.51 25.59625 1 26 C-1.1875 25.6875 -1.1875 25.6875 -3 25 C-2.2575 24.649375 -1.515 24.29875 -0.75 23.9375 C2.66834047 21.52912376 4.52507334 18.85384064 6 15 C6.60949024 9.94993802 6.05063903 7.06751871 3 3 C1.41754725 1.24850835 1.41754725 1.24850835 0 0 Z " fill="#3D86D9" transform="translate(134,55)"/>
<path d="M0 0 C12.21 0 24.42 0 37 0 C30.86573259 4.08951161 22.64987245 3.13004967 15.5 3.0625 C14.5821875 3.05798828 13.664375 3.05347656 12.71875 3.04882812 C10.47909609 3.03716326 8.23958455 3.02079614 6 3 C6 2.34 6 1.68 6 1 C4.02 1 2.04 1 0 1 C0 0.67 0 0.34 0 0 Z " fill="#69A1E1" transform="translate(67,157)"/>
<path d="M0 0 C0.66 0 1.32 0 2 0 C2 5.61 2 11.22 2 17 C2.99 16.67 3.98 16.34 5 16 C6.56118428 15.93259135 8.1250252 15.91485544 9.6875 15.9375 C10.89986328 15.95103516 10.89986328 15.95103516 12.13671875 15.96484375 C13.05904297 15.98224609 13.05904297 15.98224609 14 16 C14 16.33 14 16.66 14 17 C12.86111328 17.19916016 12.86111328 17.19916016 11.69921875 17.40234375 C10.70535156 17.57894531 9.71148438 17.75554688 8.6875 17.9375 C7.70136719 18.11152344 6.71523438 18.28554687 5.69921875 18.46484375 C2.91810787 18.95746847 2.91810787 18.95746847 0 20 C0 13.4 0 6.8 0 0 Z " fill="#C1C2C2" transform="translate(528,46)"/>
<path d="M0 0 C14.05588484 -0.42167655 14.05588484 -0.42167655 20 2 C21.5 5.125 21.5 5.125 22 8 C21.45730469 7.72285156 20.91460937 7.44570312 20.35546875 7.16015625 C19.64003906 6.79792969 18.92460937 6.43570313 18.1875 6.0625 C17.47980469 5.70285156 16.77210938 5.34320313 16.04296875 4.97265625 C12.43745373 3.25607262 9.25626797 2.76228089 5.3125 2.4375 C4.31863281 2.35371094 3.32476562 2.26992187 2.30078125 2.18359375 C1.16189453 2.09271484 1.16189453 2.09271484 0 2 C0 1.34 0 0.68 0 0 Z " fill="#3881D0" transform="translate(118,90)"/>
<path d="M0 0 C4.67535094 0.02435079 7.81043596 0.65406657 11.8125 3.25 C7.49834897 4.68805034 3.2017848 4.25661242 -1.29492188 4.12304688 C-5.10724021 4.06298255 -7.95725535 4.09931492 -11.1875 6.25 C-5.01877572 0.08127572 -5.01877572 0.08127572 0 0 Z " fill="#C1DDF7" transform="translate(84.1875,24.75)"/>
<path d="M0 0 C-1.56164448 4.2164401 -4.41485865 6.41869823 -8 9 C-9.32 9 -10.64 9 -12 9 C-12 6 -12 6 -10.64453125 4.39453125 C-4.5892824 -0.83441498 -4.5892824 -0.83441498 0 0 Z " fill="#2881DC" transform="translate(142,134)"/>
<path d="M0 0 C1.76923828 0.01353516 1.76923828 0.01353516 3.57421875 0.02734375 C4.47785156 0.03894531 5.38148438 0.05054688 6.3125 0.0625 C6.3125 0.7225 6.3125 1.3825 6.3125 2.0625 C7.6325 2.7225 8.9525 3.3825 10.3125 4.0625 C10.3125 5.0525 10.3125 6.0425 10.3125 7.0625 C9.920625 6.588125 9.52875 6.11375 9.125 5.625 C5.25992923 2.29304244 0.17387999 2.89486621 -4.6875 3.0625 C-7.02574592 3.35942012 -9.36127689 3.68270847 -11.6875 4.0625 C-8.52263557 -0.68479664 -5.34818972 -0.05295237 0 0 Z " fill="#6D6E70" transform="translate(424.6875,61.9375)"/>
<path d="M0 0 C1.27166016 -0.00257812 2.54332031 -0.00515625 3.85351562 -0.0078125 C4.51601318 -0.00362305 5.17851074 0.00056641 5.86108398 0.00488281 C7.86895409 0.01553079 9.87690179 0.00395807 11.88476562 -0.0078125 C13.16029297 -0.00523438 14.43582031 -0.00265625 15.75 0 C16.91442627 0.00225586 18.07885254 0.00451172 19.27856445 0.00683594 C22.67142825 0.27325831 25.40566301 1.05483451 28.57421875 2.265625 C28.57421875 2.595625 28.57421875 2.925625 28.57421875 3.265625 C21.94921875 3.390625 21.94921875 3.390625 18.57421875 2.265625 C16.4362735 2.1822446 14.29579866 2.15828753 12.15625 2.16796875 C10.90263672 2.17119141 9.64902344 2.17441406 8.35742188 2.17773438 C6.39192383 2.19030273 6.39192383 2.19030273 4.38671875 2.203125 C3.05143394 2.20814183 1.71614734 2.21270441 0.38085938 2.21679688 C-2.88806598 2.22859805 -6.15690116 2.24506203 -9.42578125 2.265625 C-5.85171091 -0.11708856 -4.24232633 0.00824267 0 0 Z " fill="#6AA4E4" transform="translate(77.42578125,0.734375)"/>
<path d="M0 0 C0.5775 0.226875 1.155 0.45375 1.75 0.6875 C-0.22493032 3.12711981 -1.62269613 3.83243738 -4.625 5 C-8.78178559 6.93505536 -10.35991012 9.20457117 -13.25 12.6875 C-16.5625 14.0625 -16.5625 14.0625 -19.25 14.6875 C-15.46495647 9.71963037 -11.32431465 6.28895195 -6.25 2.6875 C-5.55519531 2.12804687 -4.86039063 1.56859375 -4.14453125 0.9921875 C-2.25 -0.3125 -2.25 -0.3125 0 0 Z " fill="#649FE0" transform="translate(48.25,10.3125)"/>
<path d="M0 0 C0.66 0 1.32 0 2 0 C2 0.99 2 1.98 2 3 C3.175625 3.4640625 3.175625 3.4640625 4.375 3.9375 C7 5 7 5 9 6 C9 6.66 9 7.32 9 8 C9.66 8 10.32 8 11 8 C11 8.99 11 9.98 11 11 C9.35 10.67 7.7 10.34 6 10 C6 9.01 6 8.02 6 7 C3.03 6.505 3.03 6.505 0 6 C-0.38218767 4.34385343 -0.71395102 2.67542976 -1 1 C-0.67 0.67 -0.34 0.34 0 0 Z " fill="#177CDE" transform="translate(33,133)"/>
<path d="M0 0 C9.9 0 19.8 0 30 0 C30 0.66 30 1.32 30 2 C32.64 2.66 35.28 3.32 38 4 C33.9187984 5.0203004 33.5825278 5.09271767 30.06640625 3.60546875 C24.10186083 1.4575478 18.22234244 1.43942988 11.9375 1.3125 C10.78572266 1.27833984 9.63394531 1.24417969 8.44726562 1.20898438 C5.6316079 1.12720179 2.81623429 1.05782625 0 1 C0 0.67 0 0.34 0 0 Z " fill="#CCE3FA" transform="translate(75,0)"/>
<path d="M0 0 C0.33 0 0.66 0 1 0 C1 1.65 1 3.3 1 5 C4.96 5 8.92 5 13 5 C13 5.33 13 5.66 13 6 C10.03 6 7.06 6 4 6 C4 7.65 4 9.3 4 11 C3.01 11 2.02 11 1 11 C1 13.64 1 16.28 1 19 C0.67 19 0.34 19 0 19 C0 12.73 0 6.46 0 0 Z " fill="#DCDDDD" transform="translate(405,89)"/>
<path d="M0 0 C2.97 0.495 2.97 0.495 6 1 C6.103125 1.639375 6.20625 2.27875 6.3125 2.9375 C6.539375 3.618125 6.76625 4.29875 7 5 C7.99 5.33 8.98 5.66 10 6 C10 9.63 10 13.26 10 17 C9.34 17.33 8.68 17.66 8 18 C8 14.37 8 10.74 8 7 C7.01 6.67 6.02 6.34 5 6 C3.15500602 4.12382302 1.6316401 2.07262391 0 0 Z " fill="#448BDA" transform="translate(50,54)"/>
<path d="M0 0 C3.39156182 3.39156182 3.21258181 6.77876348 3.3125 11.375 C3.34988281 12.49648437 3.38726562 13.61796875 3.42578125 14.7734375 C2.91858133 18.6169892 1.63318938 20.2265816 -1 23 C-0.83628906 22.01902344 -0.67257813 21.03804687 -0.50390625 20.02734375 C0.09159852 15.85881034 0.11249575 11.76598864 0.0625 7.5625 C0.05798828 6.83095703 0.05347656 6.09941406 0.04882812 5.34570312 C0.03718148 3.56376581 0.01925191 1.78187137 0 0 Z " fill="#C9E2F8" transform="translate(142,101)"/>
<path d="M0 0 C0.33 1.32 0.66 2.64 1 4 C-2.43459827 7.92525516 -4.29534196 9.810387 -9.58203125 10.3984375 C-13.07166296 10.37722393 -16.52046597 10.2606031 -20 10 C-20 9.67 -20 9.34 -20 9 C-18.83984375 8.90525391 -18.83984375 8.90525391 -17.65625 8.80859375 C-9.75648336 7.87978455 -5.35848784 5.89433662 0 0 Z " fill="#4B8EDC" transform="translate(101,52)"/>
<path d="M0 0 C0.05416188 1.60379341 0.09286638 3.20811406 0.125 4.8125 C0.14820313 5.70582031 0.17140625 6.59914063 0.1953125 7.51953125 C0 10 0 10 -2 13 C-5.625 13.1875 -5.625 13.1875 -9 13 C-9 12.67 -9 12.34 -9 12 C-7.02 11.67 -5.04 11.34 -3 11 C-2.67 8.36 -2.34 5.72 -2 3 C-5.63 3 -9.26 3 -13 3 C-13 2.67 -13 2.34 -13 2 C-12.06027344 1.90912109 -12.06027344 1.90912109 -11.1015625 1.81640625 C-9.87566406 1.69072266 -9.87566406 1.69072266 -8.625 1.5625 C-7.81289062 1.48128906 -7.00078125 1.40007812 -6.1640625 1.31640625 C-3.85304959 0.97851447 -2.33455672 0 0 0 Z " fill="#AFB1B2" transform="translate(251,105)"/>
<path d="M0 0 C0.66 0 1.32 0 2 0 C2 5.61 2 11.22 2 17 C2.66 17.33 3.32 17.66 4 18 C2.02 18.99 2.02 18.99 0 20 C0 13.4 0 6.8 0 0 Z " fill="#CBCCCD" transform="translate(367,46)"/>
<path d="M0 0 C1.32 0 2.64 0 4 0 C4 1.65 4 3.3 4 5 C-1.17578125 8.22265625 -1.17578125 8.22265625 -3 9 C-3.99 8.67 -4.98 8.34 -6 8 C-5.38125 7.4225 -4.7625 6.845 -4.125 6.25 C-2.18652947 4.19750179 -1.09985751 2.56633418 0 0 Z " fill="#267EDD" transform="translate(123,143)"/>
<path d="M0 0 C3.96 0 7.92 0 12 0 C12 0.66 12 1.32 12 2 C13.32 2.33 14.64 2.66 16 3 C16.33 4.32 16.66 5.64 17 7 C15.865625 6.360625 14.73125 5.72125 13.5625 5.0625 C9.09816188 2.80237891 4.95443682 2.22937207 0 2 C0 1.34 0 0.68 0 0 Z " fill="#3282D9" transform="translate(81,23)"/>
<path d="M0 0 C0 2.93593133 -0.22499427 5.76556416 -0.5 8.6875 C-0.5928125 9.68136719 -0.685625 10.67523438 -0.78125 11.69921875 C-0.8534375 12.45847656 -0.925625 13.21773437 -1 14 C-0.34 14.33 0.32 14.66 1 15 C1.72159424 16.64363134 2.39351421 18.31050386 3 20 C0.38874578 19.04254012 -0.79164659 18.34378312 -2.25 15.9375 C-3.52113812 10.95887569 -4.16088486 5.98317829 -1.5 1.4375 C-0.7575 0.7259375 -0.7575 0.7259375 0 0 Z " fill="#B3D5F3" transform="translate(116,58)"/>
<path d="M0 0 C-0.33 1.32 -0.66 2.64 -1 4 C-1.99 4 -2.98 4 -4 4 C-4.0825 4.556875 -4.165 5.11375 -4.25 5.6875 C-5.22610013 8.69714206 -6.95188814 10.62154752 -9 13 C-9 9.24665834 -8.94838335 8.3691612 -7.1875 5.375 C-6.85105469 4.78460938 -6.51460938 4.19421875 -6.16796875 3.5859375 C-4.47460439 1.28658657 -2.91567496 0 0 0 Z " fill="#3180D5" transform="translate(111,95)"/>
<path d="M0 0 C0.66 0.33 1.32 0.66 2 1 C1.3503125 2.051875 1.3503125 2.051875 0.6875 3.125 C-1.01501086 6.02557406 -2.52448567 8.97870875 -4 12 C-1.03 12 1.94 12 5 12 C5 12.33 5 12.66 5 13 C1.7 13 -1.6 13 -5 13 C-4.50769231 4.63076923 -4.50769231 4.63076923 -1.9375 1.4375 C-1.298125 0.963125 -0.65875 0.48875 0 0 Z " fill="#606163" transform="translate(271,64)"/>
<path d="M0 0 C0.33 0.66 0.66 1.32 1 2 C2.65 2 4.3 2 6 2 C6 1.34 6 0.68 6 0 C7.32 0.33 8.64 0.66 10 1 C6.39042389 4.2910841 3.87362847 5.54663921 -1 6 C-0.67 4.02 -0.34 2.04 0 0 Z " fill="#E4F0FB" transform="translate(119,137)"/>
<path d="M0 0 C1.41655793 -0.0272415 2.83327045 -0.04650467 4.25 -0.0625 C5.43335938 -0.07990234 5.43335938 -0.07990234 6.640625 -0.09765625 C8.90691002 -0.00385306 10.8288895 0.36758937 13 1 C12.01 2.485 12.01 2.485 11 4 C7.7 3.34 4.4 2.68 1 2 C0.67 3.32 0.34 4.64 0 6 C0 4.02 0 2.04 0 0 Z " fill="#3E3E41" transform="translate(302,64)"/>
<path d="M0 0 C2 1 2 1 2.81640625 3.21484375 C3.06261719 4.11332031 3.30882812 5.01179688 3.5625 5.9375 C4.549513 9.55797321 4.549513 9.55797321 6 13 C5.67 13.66 5.34 14.32 5 15 C5.66 15 6.32 15 7 15 C6.67 16.32 6.34 17.64 6 19 C2.35920537 12.56479472 0.35865323 7.41216681 0 0 Z " fill="#3E87D8" transform="translate(10,99)"/>
<path d="M0 0 C0.66 0.33 1.32 0.66 2 1 C-1.22302975 5.83454463 -4.82620318 7.75216109 -10 10 C-8.25399339 6.22637281 -6.10159421 3.79899966 -3 1 C-2.01 0.67 -1.02 0.34 0 0 Z " fill="#C2DCF7" transform="translate(38,93)"/>
<path d="M0 0 C4.11313564 2.05656782 5.28608049 8.75307288 6.6875 12.9375 C7.12802005 14.29068724 7.56661254 15.64451156 8 17 C4.7457985 14.16569547 3.4793247 12.31392226 3 8 C2.34 8 1.68 8 1 8 C0.67 5.36 0.34 2.72 0 0 Z " fill="#408BD9" transform="translate(152,38)"/>
<path d="M0 0 C0.66 0 1.32 0 2 0 C1.39305845 3.15330554 0.3583335 5.18888867 -1.5625 7.75 C-2.24505859 8.67039063 -2.24505859 8.67039063 -2.94140625 9.609375 C-3.46541016 10.29773438 -3.46541016 10.29773438 -4 11 C-4.99 10.67 -5.98 10.34 -7 10 C-5.88321917 8.3278148 -4.75633648 6.66237197 -3.625 5 C-2.99851563 4.071875 -2.37203125 3.14375 -1.7265625 2.1875 C-1.15679687 1.465625 -0.58703125 0.74375 0 0 Z " fill="#4B8CDB" transform="translate(143,121)"/>
<path d="M0 0 C2 2 2 2 2.125 5.125 C2.08375 6.07375 2.0425 7.0225 2 8 C-0.97 8 -3.94 8 -7 8 C-7.66 6.02 -8.32 4.04 -9 2 C-7.515 2.99 -7.515 2.99 -6 4 C-6 4.66 -6 5.32 -6 6 C-3.69 6.33 -1.38 6.66 1 7 C0.67 4.69 0.34 2.38 0 0 Z " fill="#616163" transform="translate(436,69)"/>
<path d="M0 0 C-0.25817019 3.48529763 -1.24021172 4.21465728 -3.9375 6.625 C-4.948125 7.40875 -5.95875 8.1925 -7 9 C-7.66 9.66 -8.32 10.32 -9 11 C-8.40300869 7.66864109 -7.27987719 5.78724333 -5.0625 3.25 C-4.53785156 2.63640625 -4.01320313 2.0228125 -3.47265625 1.390625 C-2 0 -2 0 0 0 Z " fill="#C0D8F6" transform="translate(67,82)"/>
<path d="M0 0 C0 0.99 0 1.98 0 3 C-2.04266429 5.04266429 -6.13691434 4.18507944 -8.9375 4.1875 C-9.67935547 4.19974609 -10.42121094 4.21199219 -11.18554688 4.22460938 C-13.12513629 4.22988478 -15.0642371 4.12188902 -17 4 C-17.66 3.34 -18.32 2.68 -19 2 C-17.96359375 2.02320312 -16.9271875 2.04640625 -15.859375 2.0703125 C-14.48959056 2.08907667 -13.1197983 2.10727618 -11.75 2.125 C-10.72712891 2.15013672 -10.72712891 2.15013672 -9.68359375 2.17578125 C-5.9391765 2.21213482 -3.17647273 2.07944349 0 0 Z " fill="#7F8082" transform="translate(434,105)"/>
<path d="M0 0 C3.3 0 6.6 0 10 0 C10.33 1.32 10.66 2.64 11 4 C6.545 3.01 6.545 3.01 2 2 C1.67 2.99 1.34 3.98 1 5 C0.67 3.35 0.34 1.7 0 0 Z " fill="#676768" transform="translate(229,112)"/>
<path d="M0 0 C-1.77444972 2.24606427 -2.58352485 2.95081002 -5.48046875 3.29296875 C-6.37378906 3.25816406 -7.26710938 3.22335938 -8.1875 3.1875 C-9.08855469 3.16042969 -9.98960938 3.13335937 -10.91796875 3.10546875 C-11.94857422 3.05326172 -11.94857422 3.05326172 -13 3 C-13.33 2.34 -13.66 1.68 -14 1 C-4.58997722 -0.14806378 -4.58997722 -0.14806378 0 0 Z " fill="#BFDAF8" transform="translate(52,78)"/>
<path d="M0 0 C1.010625 0.33 2.02125 0.66 3.0625 1 C6.76629915 2.06681436 10.14061927 2.14843772 14 2 C14.99 2 15.98 2 17 2 C14.30898766 4.69101234 12.80924054 4.29887549 9.0625 4.3125 C8.00160156 4.32925781 6.94070313 4.34601563 5.84765625 4.36328125 C3 4 3 4 1.12109375 2.54296875 C0 1 0 1 0 0 Z " fill="#737475" transform="translate(268,105)"/>
<path d="M0 0 C1.32 0.99 2.64 1.98 4 3 C3.2884375 3.99 3.2884375 3.99 2.5625 5 C0.58682146 8.7933028 0.35972537 11.75524068 0 16 C-0.33 16 -0.66 16 -1 16 C-1.02692484 13.70839681 -1.04636124 11.41670454 -1.0625 9.125 C-1.07410156 7.84882812 -1.08570312 6.57265625 -1.09765625 5.2578125 C-1 2 -1 2 0 0 Z " fill="#3A87DB" transform="translate(31,55)"/>
<path d="M0 0 C6.4 0.36923077 6.4 0.36923077 9.4375 3.5625 C9.953125 4.366875 10.46875 5.17125 11 6 C5.64951939 5.62671065 3.49087093 4.0042343 0 0 Z " fill="#C6DFF7" transform="translate(43,138)"/>
<path d="M0 0 C0.99 0.33 1.98 0.66 3 1 C0.69 3.97 -1.62 6.94 -4 10 C-5 7 -5 7 -3.6875 4.3125 C-3.130625 3.549375 -2.57375 2.78625 -2 2 C-1.34 2 -0.68 2 0 2 C0 1.34 0 0.68 0 0 Z " fill="#3684D6" transform="translate(149,123)"/>
<path d="M0 0 C2.97 0 5.94 0 9 0 C9.66 1.98 10.32 3.96 11 6 C9.72791378 5.37755401 8.45738118 4.75193233 7.1875 4.125 C6.47980469 3.77695313 5.77210938 3.42890625 5.04296875 3.0703125 C3 2 3 2 0 0 Z " fill="#4B8DDA" transform="translate(129,92)"/>
<path d="M0 0 C1.299375 -0.02126953 1.299375 -0.02126953 2.625 -0.04296875 C5 0.1875 5 0.1875 8 2.1875 C7.27554688 2.15269531 6.55109375 2.11789063 5.8046875 2.08203125 C0.06001832 1.92118051 -4.01322966 1.95283816 -9 5.1875 C-8.6875 3.25 -8.6875 3.25 -8 1.1875 C-5.07345473 0.21198491 -3.05345004 0.02271912 0 0 Z " fill="#317ED4" transform="translate(44,51.8125)"/>
<path d="M0 0 C0.33 0 0.66 0 1 0 C1.13277344 0.77085938 1.26554687 1.54171875 1.40234375 2.3359375 C1.57894531 3.33882812 1.75554687 4.34171875 1.9375 5.375 C2.11152344 6.37273438 2.28554687 7.37046875 2.46484375 8.3984375 C2.87712062 10.96909656 2.87712062 10.96909656 4 13 C3.34 13.66 2.68 14.32 2 15 C-0.35119399 11.47320901 -0.21443452 9.97120515 -0.125 5.8125 C-0.10695313 4.72582031 -0.08890625 3.63914063 -0.0703125 2.51953125 C-0.04710938 1.68808594 -0.02390625 0.85664062 0 0 Z " fill="#CEE4FA" transform="translate(68,38)"/>
<path d="M0 0 C1.6266848 0.28211877 3.25132896 0.57602375 4.875 0.875 C5.77992187 1.03742187 6.68484375 1.19984375 7.6171875 1.3671875 C10 2 10 2 12 4 C7.45194365 4.17835515 4.1205746 3.99785435 0 2 C0 1.34 0 0.68 0 0 Z " fill="#478DDC" transform="translate(106,4)"/>
<path d="M0 0 C0 3.60352128 -1.08590249 5.01400788 -3 8 C-3.33 8.66 -3.66 9.32 -4 10 C-4.99 10 -5.98 10 -7 10 C-5.6062718 5.56541027 -3.39417765 3.12621626 0 0 Z " fill="#6EA5E2" transform="translate(28,25)"/>
<path d="M0 0 C4.75 1.875 4.75 1.875 7 3 C7 3.66 7 4.32 7 5 C7.66 5.33 8.32 5.66 9 6 C7.35 5.67 5.7 5.34 4 5 C4 4.34 4 3.68 4 3 C2.68 3.33 1.36 3.66 0 4 C0 2.68 0 1.36 0 0 Z " fill="#307BD3" transform="translate(45,141)"/>
<path d="M0 0 C2.64465038 3.1254959 3.84414715 6.08788267 5 10 C4.34 10 3.68 10 3 10 C3 9.34 3 8.68 3 8 C2.34 8 1.68 8 1 8 C0.67 5.36 0.34 2.72 0 0 Z " fill="#D7D8D9" transform="translate(198,73)"/>
<path d="M0 0 C2.97 0.495 2.97 0.495 6 1 C6.33 2.98 6.66 4.96 7 7 C5.83040013 6.02433888 4.66438823 5.044375 3.5 4.0625 C2.8503125 3.51722656 2.200625 2.97195312 1.53125 2.41015625 C1.0259375 1.94480469 0.520625 1.47945312 0 1 C0 0.67 0 0.34 0 0 Z " fill="#5C97DB" transform="translate(50,54)"/>
<path d="M0 0 C0.99 0.33 1.98 0.66 3 1 C3 1.66 3 2.32 3 3 C5.64 3 8.28 3 11 3 C11.33 2.34 11.66 1.68 12 1 C12 1.99 12 2.98 12 4 C8.7 4 5.4 4 2 4 C1.34 2.68 0.68 1.36 0 0 Z " fill="#6D6D6F" transform="translate(285,104)"/>
<path d="M0 0 C2.5 2.3125 2.5 2.3125 5 5 C5 5.99 5 6.98 5 8 C3.68 8.33 2.36 8.66 1 9 C1.020625 8.071875 1.04125 7.14375 1.0625 6.1875 C1.15769604 2.97713989 1.15769604 2.97713989 0 0 Z " fill="#ADD3F4" transform="translate(109,86)"/>
<path d="M0 0 C1.98 0 3.96 0 6 0 C4.1875 2 4.1875 2 2 4 C1.01 4 0.02 4 -1 4 C-0.67 2.68 -0.34 1.36 0 0 Z " fill="#E4EFFC" transform="translate(68,80)"/>
<path d="M0 0 C0.66 0.99 1.32 1.98 2 3 C1.01 3.495 1.01 3.495 0 4 C-1.13350534 6.01669827 -1.13350534 6.01669827 -2 8 C-3.32 7.67 -4.64 7.34 -6 7 C-5.071875 6.6596875 -5.071875 6.6596875 -4.125 6.3125 C-1.38589791 4.62070165 -0.94975528 3.00755839 0 0 Z " fill="#4E92DA" transform="translate(57,72)"/>
<path d="M0 0 C2.05078125 0.03255208 4.1015625 0.06510417 6.15234375 0.09765625 C6.15234375 0.42765625 6.15234375 0.75765625 6.15234375 1.09765625 C3.84234375 1.09765625 1.53234375 1.09765625 -0.84765625 1.09765625 C-0.84765625 2.41765625 -0.84765625 3.73765625 -0.84765625 5.09765625 C-1.83765625 5.09765625 -2.82765625 5.09765625 -3.84765625 5.09765625 C-2.72914438 0.14424653 -2.72914438 0.14424653 0 0 Z " fill="#494C4C" transform="translate(253.84765625,63.90234375)"/>
<path d="M0 0 C-0.625 1.875 -0.625 1.875 -2 4 C-5.125 5.25 -5.125 5.25 -8 6 C-3.375 0 -3.375 0 0 0 Z " fill="#5496DB" transform="translate(37,19)"/>
<path d="M0 0 C3.36591866 1.44253657 5.51047079 3.33264727 8 6 C4.62537285 5.45276317 2.91765 4.9451 0 3 C0 2.01 0 1.02 0 0 Z " fill="#3481D7" transform="translate(35,133)"/>
<path d="M0 0 C1.32 0.66 2.64 1.32 4 2 C0.79619983 4.13586678 -0.01939967 4.23132175 -3.6875 4.125 C-4.89986328 4.09792969 -4.89986328 4.09792969 -6.13671875 4.0703125 C-7.05904297 4.03550781 -7.05904297 4.03550781 -8 4 C-8 3.67 -8 3.34 -8 3 C-5.36 3 -2.72 3 0 3 C0 2.01 0 1.02 0 0 Z " fill="#747475" transform="translate(366,104)"/>
<path d="M0 0 C2.31 0.33 4.62 0.66 7 1 C7 2.65 7 4.3 7 6 C5.83054208 5.19152271 4.66449539 4.37810888 3.5 3.5625 C2.8503125 3.11003906 2.200625 2.65757813 1.53125 2.19140625 C1.0259375 1.79824219 0.520625 1.40507813 0 1 C0 0.67 0 0.34 0 0 Z " fill="#4289D9" transform="translate(104,81)"/>
<path d="M0 0 C0.53625 0.226875 1.0725 0.45375 1.625 0.6875 C-3.79038462 3.76442308 -3.79038462 3.76442308 -6.75 3.375 C-7.554375 3.0346875 -7.554375 3.0346875 -8.375 2.6875 C-2.95961538 -0.38942308 -2.95961538 -0.38942308 0 0 Z " fill="#4189D7" transform="translate(58.375,6.3125)"/>
<path d="M0 0 C0.66 0 1.32 0 2 0 C1.50168276 3.68754757 0.89932357 5.60490662 -2 8 C-2 6.35 -2 4.7 -2 3 C-1.34 3 -0.68 3 0 3 C0 2.01 0 1.02 0 0 Z " fill="#3183D6" transform="translate(155,112)"/>
<path d="M0 0 C0.391875 0.474375 0.78375 0.94875 1.1875 1.4375 C3.40808374 3.35179633 5.13375709 3.61266988 8 4 C8 4.33 8 4.66 8 5 C6.824375 5.2165625 6.824375 5.2165625 5.625 5.4375 C3.03578982 5.87798925 3.03578982 5.87798925 1 7 C0.67 4.69 0.34 2.38 0 0 Z " fill="#585A5C" transform="translate(239,95)"/>
<path d="M0 0 C-0.33 1.32 -0.66 2.64 -1 4 C-2.65 4.33 -4.3 4.66 -6 5 C-3.74193548 0 -3.74193548 0 0 0 Z " fill="#5090DA" transform="translate(111,95)"/>
<path d="M0 0 C0 0.99 0 1.98 0 3 C-1.98 3.99 -1.98 3.99 -4 5 C-4 5.66 -4 6.32 -4 7 C-4.66 7 -5.32 7 -6 7 C-5.8125 5.1875 -5.8125 5.1875 -5 3 C-2.4375 1.25 -2.4375 1.25 0 0 Z " fill="#E3F0FA" transform="translate(77,28)"/>
<path d="M0 0 C5.75 1.625 5.75 1.625 8 5 C5.36 4.34 2.72 3.68 0 3 C0 2.01 0 1.02 0 0 Z " fill="#7BAFE8" transform="translate(123,10)"/>
</svg>
